<?xml version="1.0" encoding="utf-8"?>
<!-- Generator: Adobe Illustrator 21.0.0, SVG Export Plug-In . SVG Version: 6.00 Build 0)  -->
<svg version="1.1" id="bold" xmlns="http://www.w3.org/2000/svg" xmlns:xlink="http://www.w3.org/1999/xlink" x="0px" y="0px"
	 viewBox="0 0 512 512" style="enable-background:new 0 0 512 512;" xml:space="preserve">
<style type="text/css">
	.st0{fill:#FFFFFF;}
</style>
<path class="st0" d="M256,384c-4.4,0-8.6-1.8-11.6-4.9l-112-117.3c-9.7-10.2-2.5-27.1,11.6-27.1h58.7V112c0-14.7,12-26.7,26.7-26.7
	h53.3c14.7,0,26.7,12,26.7,26.7v122.7H368c14.1,0,21.3,16.9,11.6,27.1l-112,117.3C264.6,382.2,260.4,384,256,384z"/>
<path class="st0" d="M411.3,516H100.8C72.2,516,49,487.3,49,452V345.3c0-35.3,23.2-64,51.8-64h25.9c9.5,0,17.3,9.6,17.3,21.3
	s-7.7,21.3-17.3,21.3h-25.9c-9.5,0-17.3,9.6-17.3,21.3V452c0,11.8,7.7,21.3,17.3,21.3h310.5c9.5,0,17.3-9.6,17.3-21.3V345.3
	c0-11.8-7.7-21.3-17.3-21.3h-25.9c-9.5,0-17.3-9.6-17.3-21.3s7.7-21.3,17.3-21.3h25.9c28.5,0,51.8,28.7,51.8,64V452
	C463,487.3,439.8,516,411.3,516z"/>
</svg>
