<?xml version="1.0" encoding="utf-8"?>
<!-- Generator: Adobe Illustrator 21.0.0, SVG Export Plug-In . SVG Version: 6.00 Build 0)  -->
<svg version="1.1" id="Capa_1" xmlns="http://www.w3.org/2000/svg" xmlns:xlink="http://www.w3.org/1999/xlink" x="0px" y="0px"
	 viewBox="0 0 512 512" style="enable-background:new 0 0 512 512;" xml:space="preserve">
<style type="text/css">
	.st0{fill:#FFFFFF;}
</style>
<g>
	<g>
		<path class="st0" d="M141.4,116.5c-7.4-7.4-19.4-7.4-26.7,0c-27.4,27.4-40.9,65.6-37,104.8c1,9.8,9.2,17,18.8,17
			c0.6,0,1.3,0,1.9-0.1c10.4-1,18-10.3,16.9-20.7c-2.8-27.8,6.7-54.9,26.1-74.3C148.8,135.9,148.8,123.9,141.4,116.5z"/>
	</g>
</g>
<g>
	<g>
		<path class="st0" d="M212.3,18C104,18,16,105.9,16,213.9s88,195.9,196.3,195.9S408.6,322,408.6,213.9S320.5,18,212.3,18z
			 M212.3,375.6c-89.3,0-161.9-72.5-161.9-161.7S123,52.3,212.3,52.3c89.3,0,161.9,72.5,161.9,161.7S301.6,375.6,212.3,375.6z"/>
	</g>
</g>
<g>
	<g>
		<path class="st0" d="M506.5,479.7L369,342.3c-7.4-7.4-19.4-7.4-26.7,0c-7.4,7.4-7.4,19.4,0,26.7l137.5,137.5
			c3.7,3.7,8.5,5.5,13.4,5.5s9.7-1.8,13.4-5.5C513.8,499.1,513.8,487.1,506.5,479.7z"/>
	</g>
</g>
</svg>
