<?xml version="1.0" encoding="utf-8"?>
<!-- Generator: Adobe Illustrator 21.0.0, SVG Export Plug-In . SVG Version: 6.00 Build 0)  -->
<svg version="1.1" id="Camada_1" xmlns="http://www.w3.org/2000/svg" xmlns:xlink="http://www.w3.org/1999/xlink" x="0px" y="0px"
	 viewBox="0 0 599 352" style="enable-background:new 0 0 599 352;" xml:space="preserve">
<style type="text/css">
	.st0{fill:none;stroke:#04D361;stroke-width:0.779;stroke-miterlimit:10;}
	.st1{fill:#04D361;stroke:#04D361;}
	.st2{fill:none;stroke:#FFFFFF;stroke-width:0.7047;stroke-linecap:round;stroke-linejoin:round;stroke-miterlimit:10;}
	.st3{fill:#04D361;}
	.st4{fill:none;stroke:#FFFFFF;stroke-width:1.1364;stroke-linecap:round;stroke-linejoin:round;stroke-miterlimit:10;}
	.st5{fill:none;stroke:#FFFFFF;stroke-width:0.8174;stroke-linecap:round;stroke-linejoin:round;stroke-miterlimit:10;}
	.st6{fill:none;stroke:#FFFFFF;stroke-width:0.7781;stroke-linecap:round;stroke-linejoin:round;stroke-miterlimit:10;}
	.st7{fill:none;stroke:#FFFFFF;stroke-width:0.9754;stroke-linecap:round;stroke-linejoin:round;stroke-miterlimit:10;}
	.st8{fill:none;stroke:#FFFFFF;stroke-width:0.8986;stroke-linecap:round;stroke-linejoin:round;stroke-miterlimit:10;}
	.st9{fill:none;stroke:#04D361;stroke-width:2;stroke-linecap:round;stroke-linejoin:round;stroke-miterlimit:10;}
	.st10{fill:#9871F5;stroke:#9871F5;}
	.st11{fill:none;stroke:#04D361;stroke-width:4;}
	.st12{fill:#E6E6F0;}
	.st13{fill:none;stroke:#FFFFFF;stroke-width:2;stroke-linecap:round;stroke-linejoin:round;stroke-miterlimit:10;}
	.st14{fill:#FFFFFF;}
	.st15{fill:#6842C2;}
	.st16{fill:none;stroke:#FFFFFF;stroke-width:2.2165;stroke-linecap:round;stroke-linejoin:round;stroke-miterlimit:10;}
	.st17{fill:#6842C2;stroke:#FFFFFF;stroke-width:2;stroke-linecap:round;stroke-linejoin:round;stroke-miterlimit:10;}
	.st18{fill:#525050;}
	.st19{fill:#3D8536;}
	.st20{fill:#413F40;}
	.st21{fill:#494748;}
	.st22{fill:#7A7F81;}
	.st23{fill:#D8D9DB;}
	.st24{fill:#F9A212;}
	.st25{fill:#E7831D;}
	.st26{fill:#FBFBFA;}
	.st27{fill:#E3E691;}
	.st28{fill:#93BF37;}
	.st29{fill:#5B595A;}
	.st30{fill:#EB2821;}
	.st31{fill:#383637;}
	.st32{fill:#2D2B2C;}
	.st33{fill:#CDD618;}
</style>
<path class="st0" d="M73.8,229.7c1.2-6.4,5-12.2,10.3-15.9"/>
<path class="st0" d="M73.7,231.5c0.2-5.3,2.3-18.1,7.1-26.1"/>
<path class="st0" d="M73.7,230.9c0.8-9.5,0.8-20-0.7-29.4"/>
<path class="st1" d="M84.9,211.3L84.9,211.3c0,0.1-0.1,0.2-0.1,0.3c-0.7,1.2-1.3,2.3-2.1,3.4c0.2-0.1,0.4-0.2,0.7-0.3
	c0.1,0,0.2-0.1,0.4-0.1c0.3-0.1,0.5-0.2,0.8-0.3c0.4-0.1,0.8-0.3,1.1-0.3l0,0c1.7-0.2,3.4-0.2,5,0l0,0c1.3,0.2,2.6,0.4,3.8,0.7
	c0.4,0.1,0.8,0.2,1.2,0.2c1.7,0.3,3.3,0.6,4.9,0.6l0,0c0.9,0,1.9-0.1,2.8-0.4c0.8-0.3,1.5-0.8,1.8-1.6l0,0c0.5-1.2,0-2.8-1.1-3.7
	l0,0c-1.1-0.9-2.6-1.3-4.2-1.5l0,0c-0.6-0.1-1.1-0.1-1.7-0.1c-0.2,0-0.4,0-0.7,0c-0.8,0-1.6-0.1-2.5-0.3l0,0c-0.5-0.1-1-0.2-1.4-0.3
	c-0.1,0-0.1,0-0.2-0.1c-0.4-0.1-0.8-0.2-1.2-0.3c-0.9-0.2-1.8-0.3-2.6-0.2L84.9,211.3z M84.9,211.3L84.9,211.3 M84.9,211.3
	L84.9,211.3 M84.9,211.3c1.1-2,2.6-3.9,4.6-4.3L84.9,211.3z"/>
<path class="st1" d="M80.2,206.5c0.6-0.5,1.2-1.2,1.8-1.9c0.1-0.1,0.2-0.2,0.2-0.3c0.7-0.8,1.5-1.7,2.4-2.4c2.4-1.9,5.2-3.3,8.3-3.6
	L80.2,206.5z M80.2,206.5c0-0.2,0.1-0.4,0.1-0.6c0.2-0.8,0.6-1.8,1.1-2.9c0.7-1.6,1.5-3.2,1.9-4.2c0.2-0.3,0.3-0.6,0.3-0.7
	c1.6-3.4,4-6.6,7.4-7.5l0,0c1.4-0.4,2.9-0.4,4.5-0.2c0.5,0,1.1,0.1,1.6,0.2c1,0.1,2.1,0.2,3.2,0.3h0c0.5,0,1,0,1.5,0
	c0.2,0,0.5,0,0.7,0c0.7,0,1.4,0,2.1,0.1c1.4,0.2,2.7,0.8,3.4,1.9l0,0c0.5,0.8,0.5,1.9,0.2,2.9c-0.3,1-1,1.9-1.9,2.5
	c-1.8,1.1-4.1,1.2-6.4,1c-0.7-0.1-1.3-0.2-1.9-0.3c-0.5-0.1-1-0.1-1.5-0.2c-1.2-0.1-2.4-0.2-3.6-0.1L80.2,206.5z M80.2,207.1
	C80.2,207.1,80.2,207.1,80.2,207.1L80.2,207.1z"/>
<path class="st1" d="M75.3,192.4L75.3,192.4c0.3,1.8,0,3.6-0.6,5.4c0,0.1-0.1,0.3-0.1,0.5c-0.2,0.6-0.4,1.3-0.7,2.1
	c-0.2,0.5-0.4,0.9-0.6,1.3c-0.1,0.2-0.2,0.3-0.3,0.4c-0.1,0.1-0.1,0.1-0.1,0.1h0c-0.1,0-0.3,0-0.7-0.2c-0.3-0.2-0.7-0.4-1-0.7
	c-0.7-0.6-1.4-1.3-1.7-1.6c-1-1.1-1.8-2.3-2.3-3.7l0,0c-0.6-1.6-0.8-3.3-1-5c0,0,0-0.1,0-0.1c-0.2-1.7-0.4-3.5-1-5.1l0,0
	c-0.7-1.9-1.8-3.6-2.9-5.2c-0.3-0.4-0.6-0.8-0.8-1.3c-1.3-2.1-2.4-4.2-2.4-6.5c0-2.3,1.5-4.6,3.6-5h0c1.4-0.2,2.9,0.3,4.1,1.3h0
	c1.7,1.3,3,3.2,3.5,5.3c0.3,1.3,0.4,2.6,0.4,4l0,0.1c0.1,1.3,0.1,2.8,0.5,4.1c0.4,1.7,1.3,3.3,2,4.8c0.1,0.1,0.1,0.2,0.2,0.3
	C74.2,189.1,75,190.7,75.3,192.4z"/>
<path class="st0" d="M73.6,230c-0.6-8.4-2.8-17.8-7.4-24.8"/>
<path class="st1" d="M65.1,198.9L65.1,198.9c0.7,1.9,1.1,3.8,1.4,5.8l0,0c0,0.1,0,0.2,0.1,0.4c0,0.1,0,0.1,0,0.1
	c0,0.2,0.1,0.4,0.1,0.6c0,0.2,0,0.3,0,0.4c0,0.1-0.1,0.1-0.1,0.1l0,0c0,0,0,0-0.2,0c-0.1,0-0.3-0.1-0.5-0.2
	c-0.4-0.2-0.8-0.5-0.9-0.7c-0.3-0.3-0.6-0.7-0.9-1.1c-0.1-0.1-0.2-0.3-0.3-0.4c-0.2-0.3-0.4-0.5-0.6-0.8v0c-2.7-3.3-7-4.9-11.1-5.5
	c-2.1-0.3-4.2-0.4-6.2-0.4c-0.5,0-1.1,0-1.6,0c-1.5,0-3,0-4.5-0.1h0c-0.9,0-1.8-0.1-2.4-0.6c-0.8-0.6-1.2-1.8-0.9-2.9
	c0.2-1.1,1-2,1.9-2.8l0,0c2-1.7,4.7-2.6,7.4-2.8c2.7-0.2,5.5,0.3,8.1,1l0,0c2.6,0.7,5.1,1.6,7.1,3.3
	C62.9,194.1,64.2,196.4,65.1,198.9z"/>
<path class="st0" d="M73.5,230.9c-0.4-7.3-3.6-14.4-9-19.4"/>
<path class="st1" d="M61.7,207.6c-1.8-1-3.9-1.6-6-2.2L61.7,207.6z M61.7,207.6c0.1,0.1,0.3,0.1,0.4,0.2h0l0,0
	c0.8,0.5,1.3,1.2,1.9,2.1c0.1,0.1,0.2,0.3,0.3,0.6c0,0.1,0.1,0.2,0.1,0.3c0.1,0.2,0.2,0.4,0.3,0.7c0,0.1,0.1,0.1,0.1,0.2
	c-2.5-0.7-5.2-0.7-7.6-0.6h0l0,0 M61.7,207.6l-4.4,3.5 M57.3,211.1c-3.3,0-6.5,0.6-9.5,1.8l0,0c-0.4,0.2-0.8,0.3-1.2,0.5
	c-1.5,0.6-2.9,1.2-4.4,1.3c-0.5,0-1,0-1.5-0.2c-0.4-0.2-0.7-0.4-0.8-0.8c-0.2-0.6,0.1-1.3,0.6-1.9l0,0 M57.3,211.1l-16.7,0.6
	 M40.6,211.7L40.6,211.7 M40.6,211.7L40.6,211.7 M40.6,211.7c1-1.4,2.3-2.5,3.7-3.7 M40.6,211.7l3.7-3.7 M44.3,208
	c1.8-1.5,3.5-2.9,5.6-3.4L44.3,208z M65.6,211.9c-0.2-0.4-0.4-0.9-0.6-1.3c-0.2-0.4-0.4-0.8-0.5-1c-0.6-0.9-1.2-1.8-2.1-2.3
	c-0.1-0.1-0.3-0.2-0.4-0.2L65.6,211.9z M49.9,204.7c1.9-0.4,3.9,0.2,5.9,0.7L49.9,204.7z"/>
<path class="st1" d="M527.6,320.7L527.6,320.7c-1.1,1.1-2.4,1.7-3.7,2.2c-0.3,0.1-0.6,0.2-0.9,0.4c-1,0.4-1.9,0.7-2.8,1.2
	c-2.5,1.4-4.3,4-5.4,6.8c0,0,0,0.1,0,0.1c-0.4,1-1,2.5-1.3,4c-0.2,0.8-0.3,1.5-0.2,2.1c0,0.6,0.2,1.2,0.5,1.5l0,0
	c0.6,0.8,1.8,1,3.1,0.8c1.4-0.2,2.8-0.8,3.8-1.3h0c0.4-0.2,0.8-0.3,1.2-0.5c2-0.9,4.1-1.8,6.4-1.9c2.4-0.1,4.7,0.8,6.7,1.6l0.1,0
	c2.1,0.8,4.1,1.6,6.2,1.6c2.1,0,4.4-1,5.4-2.9c0.4-0.8,0.6-1.7,0.8-2.7c0-0.2,0.1-0.4,0.1-0.5c0.2-1.1,0.5-2.4,1.4-3.3h0
	c0.9-1,2.1-1.4,3.3-1.6c0.9-0.1,1.8-0.1,2.6-0.1c0.3,0,0.6,0,0.9,0h0c2.4-0.1,4.9-0.7,6.7-2.3l0,0c1.9-1.6,3-4.1,2.4-6.3h0
	c-0.5-1.8-2-3-3.5-4.3v0c-2.2-1.8-4.4-3.4-7-3.3c-0.9,0.1-1.8,0.4-2.8,0.7l-0.1,0c-1,0.3-2.1,0.7-3.2,0.7c-1.4,0-2.7-0.4-3.8-1
	c-0.9-0.4-1.7-1-2.5-1.5c-0.2-0.2-0.5-0.3-0.7-0.5c-2.1-1.3-4.5-2.3-6.6-1.3L527.6,320.7z M527.6,320.7c1.5-1.5,2.2-3.6,2.8-5.5
	 M527.6,320.7l2.8-5.5 M530.4,315.2c0.1-0.3,0.2-0.5,0.3-0.8 M530.4,315.2l0.3-0.8 M530.6,314.4c0.7-2.1,1.7-4.2,3.6-5.1
	L530.6,314.4z"/>
<path class="st2" d="M513.6,339.1c12.1-10.4,26.3-17.3,41.6-20.3"/>
<path class="st3" d="M525.6,323c0.3-3.4-0.4-7,0.8-10.3c2-5.8,9-8.8,10.8-14.7c2.1-7-4.3-14.2-3.2-21.5c0.5-3.1,2.2-5.8,3.3-8.6
	c1.1-2.9,1.4-6.5-0.7-8.8c-2.2-2.4-6.3-2.1-8.9-0.2c-2.6,1.9-4.2,4.9-5.4,7.9c-1.2,3-2.3,6.1-4.4,8.6c-3.8,4.5-10.6,6.5-12.7,12.1
	c-2.1,5.6,1.9,11.6,2.6,17.6c0.5,4.5-0.8,9-2.1,13.4c-1.2,4.4-2.3,9.1-1.2,13.5c1.5,5.9,6.8,9.6,11.9,5.9
	C521.3,334.2,525.1,329.5,525.6,323z"/>
<path class="st4" d="M513.1,339.4c-2-21,2.6-43.8,13.4-62"/>
<path class="st3" d="M499.6,331.4c-2.2-3.1-3.5-7-6.5-9.4c-3.4-2.7-8.2-2.8-12.6-3.1c-4.4-0.4-9.3-1.6-11.4-5.5
	c-1.1-2.1-1.1-4.7-1.9-7c-0.9-2.5-2.6-4.6-3.8-6.9c-1.2-2.3-1.9-5.3-0.4-7.6c1.4-2.3,4.6-2.9,7.2-2.2c2.6,0.7,4.7,2.5,6.6,4.4
	c1.9,1.9,3.8,3.9,6.2,5.1c3.9,2,8.6,1.6,13.1,1.5c4.4-0.2,9.3,0,12.7,2.8c2.8,2.3,4.1,6,5.3,9.5c1.7,5,3.4,9.9,5,14.9
	c1,3.1,2.9,7.8-0.3,10.2C513.1,342.3,502.9,336,499.6,331.4z"/>
<path class="st5" d="M516.9,338.2c-7-16.4-21.9-30.3-39.8-36.4"/>
<path class="st3" d="M111.4,337.5c2-3,3.2-6.9,5.9-9.1c3.1-2.5,7.4-2.2,11.3-2.2c3.9,0,8.4-0.9,10.2-4.7c1-2.1,1-4.7,1.8-6.9
	c0.8-2.5,2.4-4.4,3.5-6.7c1.1-2.3,1.7-5.3,0.5-7.6c-1.3-2.4-4.1-3.3-6.4-2.7c-2.3,0.5-4.2,2.2-6,4c-1.7,1.7-3.4,3.6-5.6,4.7
	c-3.6,1.8-7.8,1-11.7,0.5c-4-0.5-8.3-0.7-11.4,1.9c-2.5,2.1-3.7,5.8-4.8,9.2c-1.5,4.9-3.1,9.8-4.6,14.7c-0.9,3-2.7,7.6,0.2,10.3
	C99.2,347.4,108.4,341.8,111.4,337.5z"/>
<path class="st6" d="M95.8,343c6.4-16,19.9-29,35.9-33.9"/>
<path class="st3" d="M87,329.1c-0.2-3.2,0.3-6.5-0.6-9.5c-1.6-5.3-7.2-8.1-8.6-13.5c-1.7-6.5,3.4-13.1,2.6-19.8
	c-0.4-2.8-1.8-5.3-2.7-8c-0.9-2.7-1.1-6,0.6-8.1c1.8-2.2,5-1.9,7.1-0.2c2.1,1.7,3.3,4.5,4.3,7.3c1,2.8,1.9,5.7,3.5,7.9
	c3,4.2,8.5,6,10.2,11.1c1.7,5.2-1.5,10.7-2.1,16.2c-0.4,4.2,0.7,8.3,1.7,12.4c1,4,1.9,8.3,0.9,12.4c-1.2,5.4-5.4,8.9-9.5,5.4
	C90.4,339.3,87.4,335,87,329.1z"/>
<path class="st7" d="M97,344.1c1.6-19.3-2.1-40.3-10.7-57"/>
<path class="st1" d="M35.2,313.6c-0.7,3.2,0.8,7,3.2,9.4c2.4,2.4,5.6,3.5,8.5,3.8l7.8,2.6l0.4-0.3c0,0,0,0,0,0
	c-1.1-1.4-2.5-2-3.9-2.3c-1-0.2-2.1-0.3-3.2-0.4c-0.4,0-0.7-0.1-1.1-0.1h0c-2.9-0.3-5.9-1.3-8.2-3.6l0,0c-2.3-2.3-3.8-5.9-3.1-8.9
	 M35.2,313.6l0.5,0.1c0,0,0,0,0,0 M35.2,313.6l0.5,0.1l0,0 M35.2,313.6c0.6-2.6,2.5-4.3,4.4-5.9c2.5-2.2,5.4-4.4,8.8-4
	c1.2,0.2,2.4,0.7,3.6,1.2c1.2,0.5,2.5,1.1,3.8,1.2 M35.7,313.7c0.6-2.4,2.4-4,4.2-5.6l0,0c2.6-2.2,5.3-4.3,8.4-3.8l0,0
	c1.1,0.2,2.3,0.6,3.5,1.2l0.1,0c1.2,0.5,2.5,1.1,3.8,1.2 M55.7,306.6l0.1-0.5 M55.7,306.6c1.7,0.2,3.2-0.3,4.6-1
	c1-0.5,2.1-1.2,3-1.9c0.3-0.2,0.6-0.4,0.9-0.6l0,0c2.5-1.7,5.4-2.8,8-1.3 M55.7,306.6C55.7,306.6,55.7,306.6,55.7,306.6l0.1-0.5
	 M55.7,306.1c2.7,0.3,5-1.3,7.2-2.8c0.3-0.2,0.6-0.4,0.9-0.6c2.5-1.7,5.7-3,8.6-1.3 M72.2,301.9C72.2,301.9,72.2,301.9,72.2,301.9
	l0.3-0.4 M72.2,301.9c1.1,0.7,2,1.8,2.8,3.1c0.7,1.3,1.3,2.8,1.7,4.3l0,0c0.1,0.4,0.2,0.7,0.3,1.1c0.8,2.6,1.6,5.4,3.4,7.5
	 M72.2,301.9C72.2,301.9,72.2,301.9,72.2,301.9l0.3-0.4 M72.4,301.4c2.5,1.5,3.8,4.6,4.7,7.6l3.3,8.8 M80.5,317.8
	c1.3,1.5,2.9,2.4,4.5,3.2c0.4,0.2,0.8,0.4,1.2,0.6c1.2,0.6,2.4,1.1,3.5,1.9l0,0c3.1,2.1,5.4,5.8,6.8,9.7c0,0.1,0,0.1,0.1,0.2
	c0.5,1.4,1.3,3.5,1.7,5.5c0.2,1.1,0.4,2.1,0.3,3c0,0.9-0.2,1.6-0.5,2.1l0,0c-0.8,1.1-2.1,1.3-3.8,0.8c-1.7-0.4-3.4-1.3-4.7-2l0,0
	c-0.5-0.2-0.9-0.5-1.4-0.7c-1-0.5-2-1.1-3-1.6c-1.5-0.7-3.1-1.3-4.7-1.5h0c-2.9-0.3-5.6,0.7-8,1.6l-0.1,0c-2.5,1-4.9,1.9-7.5,1.7
	c-2.6-0.2-5.4-1.7-6.7-4.5L80.5,317.8z M80.5,317.8l0.4-0.3L80.5,317.8C80.5,317.8,80.5,317.8,80.5,317.8z M89.1,343.2
	c-0.5-0.2-0.9-0.5-1.4-0.8c-2.5-1.3-4.9-2.7-7.5-3c-2.7-0.3-5.3,0.6-7.8,1.6l-0.1,0c-2.4,1-4.9,1.9-7.6,1.8
	c-2.7-0.2-5.8-1.8-7.1-4.7L89.1,343.2z M89.1,343.2c2.5,1.3,7.2,3.8,9.1,1L89.1,343.2z"/>
<path class="st8" d="M97.7,343.9c-14.9-15-32.1-25.5-50.6-30.6"/>
<path class="st9" d="M523.8,71.6c0,2.9-2.3,5.2-5.2,5.2c-2.9,0-5.2-2.3-5.2-5.2c0-2.9,2.3-5.2,5.2-5.2
	C521.5,66.4,523.8,68.7,523.8,71.6z"/>
<path class="st9" d="M522.4,75.2l3.7,3.7"/>
<path class="st9" d="M319.1,1l5.5,5.5"/>
<path class="st9" d="M324.6,1l-5.5,5.5"/>
<path class="st9" d="M398,318.5l5.5,5.5"/>
<path class="st9" d="M403.5,318.5L398,324"/>
<path class="st9" d="M48.5,245.4v7.8"/>
<path class="st9" d="M52.4,249.3h-7.8"/>
<path class="st9" d="M31.6,185.5c0,2.6-2.1,4.7-4.7,4.7c-2.6,0-4.7-2.1-4.7-4.7c0-2.6,2.1-4.7,4.7-4.7
	C29.5,180.8,31.6,182.9,31.6,185.5z"/>
<path class="st9" d="M225.6,289.6c0,2.4-2,4.4-4.4,4.4c-2.4,0-4.4-2-4.4-4.4c0-2.4,2-4.4,4.4-4.4
	C223.6,285.2,225.6,287.2,225.6,289.6z"/>
<path class="st9" d="M540.3,214.8c0,2.6-2.1,4.7-4.7,4.7c-2.6,0-4.7-2.1-4.7-4.7c0-2.6,2.1-4.7,4.7-4.7
	C538.2,210.1,540.3,212.2,540.3,214.8z"/>
<path class="st10" d="M2.9,102.5c0,0.7-0.5,1.2-1.2,1.2s-1.2-0.5-1.2-1.2c0-0.7,0.5-1.2,1.2-1.2S2.9,101.8,2.9,102.5z"/>
<path class="st10" d="M14.9,102.5c0,0.7-0.5,1.2-1.2,1.2c-0.7,0-1.2-0.5-1.2-1.2c0-0.7,0.5-1.2,1.2-1.2S14.9,101.8,14.9,102.5z"/>
<path class="st10" d="M26.9,102.5c0,0.7-0.5,1.2-1.2,1.2s-1.2-0.5-1.2-1.2c0-0.7,0.5-1.2,1.2-1.2S26.9,101.8,26.9,102.5z"/>
<path class="st10" d="M38.8,102.5c0,0.7-0.5,1.2-1.2,1.2c-0.7,0-1.2-0.5-1.2-1.2c0-0.7,0.5-1.2,1.2-1.2
	C38.3,101.2,38.8,101.8,38.8,102.5z"/>
<path class="st10" d="M50.8,102.5c0,0.7-0.5,1.2-1.2,1.2s-1.2-0.5-1.2-1.2c0-0.7,0.5-1.2,1.2-1.2S50.8,101.8,50.8,102.5z"/>
<path class="st10" d="M62.8,102.5c0,0.7-0.5,1.2-1.2,1.2s-1.2-0.5-1.2-1.2c0-0.7,0.5-1.2,1.2-1.2S62.8,101.8,62.8,102.5z"/>
<path class="st10" d="M2.9,114.4c0,0.7-0.5,1.2-1.2,1.2s-1.2-0.5-1.2-1.2c0-0.7,0.5-1.2,1.2-1.2S2.9,113.8,2.9,114.4z"/>
<path class="st10" d="M14.9,114.4c0,0.7-0.5,1.2-1.2,1.2c-0.7,0-1.2-0.5-1.2-1.2c0-0.7,0.5-1.2,1.2-1.2
	C14.4,113.2,14.9,113.8,14.9,114.4z"/>
<path class="st10" d="M26.9,114.4c0,0.7-0.5,1.2-1.2,1.2s-1.2-0.5-1.2-1.2c0-0.7,0.5-1.2,1.2-1.2S26.9,113.8,26.9,114.4z"/>
<path class="st10" d="M38.8,114.4c0,0.7-0.5,1.2-1.2,1.2c-0.7,0-1.2-0.5-1.2-1.2c0-0.7,0.5-1.2,1.2-1.2
	C38.3,113.2,38.8,113.8,38.8,114.4z"/>
<path class="st10" d="M50.8,114.4c0,0.7-0.5,1.2-1.2,1.2s-1.2-0.5-1.2-1.2c0-0.7,0.5-1.2,1.2-1.2S50.8,113.8,50.8,114.4z"/>
<path class="st10" d="M62.8,114.4c0,0.7-0.5,1.2-1.2,1.2s-1.2-0.5-1.2-1.2c0-0.7,0.5-1.2,1.2-1.2S62.8,113.8,62.8,114.4z"/>
<path class="st10" d="M2.9,126.4c0,0.7-0.5,1.2-1.2,1.2s-1.2-0.5-1.2-1.2c0-0.7,0.5-1.2,1.2-1.2S2.9,125.8,2.9,126.4z"/>
<path class="st10" d="M14.9,126.4c0,0.7-0.5,1.2-1.2,1.2c-0.7,0-1.2-0.5-1.2-1.2c0-0.7,0.5-1.2,1.2-1.2S14.9,125.8,14.9,126.4z"/>
<path class="st10" d="M26.9,126.4c0,0.7-0.5,1.2-1.2,1.2s-1.2-0.5-1.2-1.2c0-0.7,0.5-1.2,1.2-1.2S26.9,125.8,26.9,126.4z"/>
<path class="st10" d="M38.8,126.4c0,0.7-0.5,1.2-1.2,1.2c-0.7,0-1.2-0.5-1.2-1.2c0-0.7,0.5-1.2,1.2-1.2
	C38.3,125.2,38.8,125.8,38.8,126.4z"/>
<path class="st10" d="M50.8,126.4c0,0.7-0.5,1.2-1.2,1.2s-1.2-0.5-1.2-1.2c0-0.7,0.5-1.2,1.2-1.2S50.8,125.8,50.8,126.4z"/>
<path class="st10" d="M62.8,126.4c0,0.7-0.5,1.2-1.2,1.2s-1.2-0.5-1.2-1.2c0-0.7,0.5-1.2,1.2-1.2S62.8,125.8,62.8,126.4z"/>
<path class="st10" d="M2.9,138.4c0,0.7-0.5,1.2-1.2,1.2s-1.2-0.5-1.2-1.2c0-0.7,0.5-1.2,1.2-1.2S2.9,137.7,2.9,138.4z"/>
<path class="st10" d="M14.9,138.4c0,0.7-0.5,1.2-1.2,1.2s-1.2-0.5-1.2-1.2c0-0.7,0.5-1.2,1.2-1.2S14.9,137.7,14.9,138.4z"/>
<path class="st10" d="M26.9,138.4c0,0.7-0.5,1.2-1.2,1.2s-1.2-0.5-1.2-1.2c0-0.7,0.5-1.2,1.2-1.2S26.9,137.7,26.9,138.4z"/>
<path class="st10" d="M38.8,138.4c0,0.7-0.5,1.2-1.2,1.2c-0.7,0-1.2-0.5-1.2-1.2c0-0.7,0.5-1.2,1.2-1.2
	C38.3,137.2,38.8,137.7,38.8,138.4z"/>
<path class="st10" d="M50.8,138.4c0,0.7-0.5,1.2-1.2,1.2s-1.2-0.5-1.2-1.2c0-0.7,0.5-1.2,1.2-1.2S50.8,137.7,50.8,138.4z"/>
<path class="st10" d="M62.8,138.4c0,0.7-0.5,1.2-1.2,1.2s-1.2-0.5-1.2-1.2c0-0.7,0.5-1.2,1.2-1.2S62.8,137.7,62.8,138.4z"/>
<path class="st10" d="M187.6,328.2c0,0.7-0.5,1.2-1.2,1.2s-1.2-0.5-1.2-1.2c0-0.7,0.5-1.2,1.2-1.2S187.6,327.5,187.6,328.2z"/>
<path class="st10" d="M199.1,315.9c0,0.6-0.5,1.1-1.1,1.1c-0.6,0-1.1-0.5-1.1-1.1c0-0.6,0.5-1.1,1.1-1.1
	C198.6,314.7,199.1,315.2,199.1,315.9z"/>
<path class="st10" d="M210.3,315.9c0,0.6-0.5,1.1-1.1,1.1c-0.6,0-1.1-0.5-1.1-1.1c0-0.6,0.5-1.1,1.1-1.1
	C209.7,314.7,210.3,315.2,210.3,315.9z"/>
<path class="st10" d="M221.4,315.9c0,0.6-0.5,1.1-1.1,1.1c-0.6,0-1.1-0.5-1.1-1.1c0-0.6,0.5-1.1,1.1-1.1
	C220.9,314.7,221.4,315.2,221.4,315.9z"/>
<path class="st10" d="M232.6,315.9c0,0.6-0.5,1.1-1.1,1.1c-0.6,0-1.1-0.5-1.1-1.1c0-0.6,0.5-1.1,1.1-1.1
	C232.1,314.7,232.6,315.2,232.6,315.9z"/>
<path class="st10" d="M187.6,340.2c0,0.7-0.5,1.2-1.2,1.2s-1.2-0.5-1.2-1.2c0-0.7,0.5-1.2,1.2-1.2S187.6,339.5,187.6,340.2z"/>
<path class="st10" d="M199.1,327.1c0,0.6-0.5,1.1-1.1,1.1c-0.6,0-1.1-0.5-1.1-1.1c0-0.6,0.5-1.1,1.1-1.1
	C198.6,325.9,199.1,326.4,199.1,327.1z"/>
<path class="st10" d="M210.3,327.1c0,0.6-0.5,1.1-1.1,1.1c-0.6,0-1.1-0.5-1.1-1.1c0-0.6,0.5-1.1,1.1-1.1
	C209.7,325.9,210.3,326.4,210.3,327.1z"/>
<path class="st10" d="M221.4,327.1c0,0.6-0.5,1.1-1.1,1.1c-0.6,0-1.1-0.5-1.1-1.1c0-0.6,0.5-1.1,1.1-1.1
	C220.9,325.9,221.4,326.4,221.4,327.1z"/>
<path class="st10" d="M232.6,327.1c0,0.6-0.5,1.1-1.1,1.1c-0.6,0-1.1-0.5-1.1-1.1c0-0.6,0.5-1.1,1.1-1.1
	C232.1,325.9,232.6,326.4,232.6,327.1z"/>
<path class="st10" d="M490.9,28.4c0,0.7-0.5,1.2-1.2,1.2c-0.7,0-1.2-0.5-1.2-1.2c0-0.7,0.5-1.2,1.2-1.2
	C490.4,27.2,490.9,27.7,490.9,28.4z"/>
<path class="st10" d="M502.9,28.4c0,0.7-0.5,1.2-1.2,1.2c-0.7,0-1.2-0.5-1.2-1.2c0-0.7,0.5-1.2,1.2-1.2
	C502.4,27.2,502.9,27.7,502.9,28.4z"/>
<path class="st10" d="M514.9,28.4c0,0.7-0.5,1.2-1.2,1.2c-0.7,0-1.2-0.5-1.2-1.2c0-0.7,0.5-1.2,1.2-1.2
	C514.3,27.2,514.9,27.7,514.9,28.4z"/>
<path class="st10" d="M490.9,40.4c0,0.7-0.5,1.2-1.2,1.2c-0.7,0-1.2-0.5-1.2-1.2s0.5-1.2,1.2-1.2C490.4,39.2,490.9,39.7,490.9,40.4z
	"/>
<path class="st10" d="M502.9,40.4c0,0.7-0.5,1.2-1.2,1.2c-0.7,0-1.2-0.5-1.2-1.2c0-0.7,0.5-1.2,1.2-1.2
	C502.4,39.2,502.9,39.7,502.9,40.4z"/>
<path class="st10" d="M514.9,40.4c0,0.7-0.5,1.2-1.2,1.2c-0.7,0-1.2-0.5-1.2-1.2c0-0.7,0.5-1.2,1.2-1.2
	C514.3,39.2,514.9,39.7,514.9,40.4z"/>
<path class="st10" d="M177.6,5.7c0,0.7-0.5,1.2-1.2,1.2s-1.2-0.5-1.2-1.2c0-0.7,0.5-1.2,1.2-1.2S177.6,5,177.6,5.7z"/>
<path class="st10" d="M189.5,5.7c0,0.7-0.5,1.2-1.2,1.2s-1.2-0.5-1.2-1.2s0.5-1.2,1.2-1.2S189.5,5,189.5,5.7z"/>
<path class="st10" d="M201.5,5.7c0,0.7-0.5,1.2-1.2,1.2c-0.7,0-1.2-0.5-1.2-1.2s0.5-1.2,1.2-1.2C201,4.5,201.5,5,201.5,5.7z"/>
<path class="st10" d="M177.6,17.7c0,0.7-0.5,1.2-1.2,1.2s-1.2-0.5-1.2-1.2s0.5-1.2,1.2-1.2S177.6,17,177.6,17.7z"/>
<path class="st10" d="M189.5,17.7c0,0.7-0.5,1.2-1.2,1.2c-0.7,0-1.2-0.5-1.2-1.2c0-0.7,0.5-1.2,1.2-1.2S189.5,17,189.5,17.7z"/>
<path class="st10" d="M201.5,17.7c0,0.7-0.5,1.2-1.2,1.2c-0.7,0-1.2-0.5-1.2-1.2c0-0.7,0.5-1.2,1.2-1.2
	C201,16.5,201.5,17,201.5,17.7z"/>
<path class="st10" d="M598.5,190.4c0,0.7-0.5,1.2-1.2,1.2s-1.2-0.5-1.2-1.2c0-0.7,0.5-1.2,1.2-1.2S598.5,189.7,598.5,190.4z"/>
<path class="st10" d="M598.5,202.4c0,0.7-0.5,1.2-1.2,1.2s-1.2-0.5-1.2-1.2c0-0.7,0.5-1.2,1.2-1.2S598.5,201.7,598.5,202.4z"/>
<path class="st10" d="M598.5,214.4c0,0.7-0.5,1.2-1.2,1.2s-1.2-0.5-1.2-1.2s0.5-1.2,1.2-1.2S598.5,213.7,598.5,214.4z"/>
<path class="st10" d="M598.5,226.4c0,0.7-0.5,1.2-1.2,1.2s-1.2-0.5-1.2-1.2c0-0.7,0.5-1.2,1.2-1.2S598.5,225.7,598.5,226.4z"/>
<path class="st10" d="M598.5,238.3c0,0.7-0.5,1.2-1.2,1.2s-1.2-0.5-1.2-1.2c0-0.7,0.5-1.2,1.2-1.2S598.5,237.7,598.5,238.3z"/>
<path class="st10" d="M598.5,250.3c0,0.7-0.5,1.2-1.2,1.2s-1.2-0.5-1.2-1.2c0-0.7,0.5-1.2,1.2-1.2S598.5,249.7,598.5,250.3z"/>
<path class="st10" d="M598.5,262.3c0,0.7-0.5,1.2-1.2,1.2s-1.2-0.5-1.2-1.2c0-0.7,0.5-1.2,1.2-1.2S598.5,261.6,598.5,262.3z"/>
<path class="st10" d="M586.5,190.4c0,0.7-0.5,1.2-1.2,1.2s-1.2-0.5-1.2-1.2c0-0.7,0.5-1.2,1.2-1.2S586.5,189.7,586.5,190.4z"/>
<path class="st10" d="M586.5,202.4c0,0.7-0.5,1.2-1.2,1.2s-1.2-0.5-1.2-1.2c0-0.7,0.5-1.2,1.2-1.2S586.5,201.7,586.5,202.4z"/>
<path class="st10" d="M586.5,214.4c0,0.7-0.5,1.2-1.2,1.2s-1.2-0.5-1.2-1.2s0.5-1.2,1.2-1.2S586.5,213.7,586.5,214.4z"/>
<path class="st10" d="M586.5,226.4c0,0.7-0.5,1.2-1.2,1.2s-1.2-0.5-1.2-1.2c0-0.7,0.5-1.2,1.2-1.2S586.5,225.7,586.5,226.4z"/>
<path class="st10" d="M586.5,238.3c0,0.7-0.5,1.2-1.2,1.2s-1.2-0.5-1.2-1.2c0-0.7,0.5-1.2,1.2-1.2S586.5,237.7,586.5,238.3z"/>
<path class="st10" d="M586.5,250.3c0,0.7-0.5,1.2-1.2,1.2s-1.2-0.5-1.2-1.2c0-0.7,0.5-1.2,1.2-1.2S586.5,249.7,586.5,250.3z"/>
<path class="st10" d="M586.5,262.3c0,0.7-0.5,1.2-1.2,1.2s-1.2-0.5-1.2-1.2c0-0.7,0.5-1.2,1.2-1.2S586.5,261.6,586.5,262.3z"/>
<path class="st10" d="M574.6,190.4c0,0.7-0.5,1.2-1.2,1.2c-0.7,0-1.2-0.5-1.2-1.2c0-0.7,0.5-1.2,1.2-1.2
	C574,189.2,574.6,189.7,574.6,190.4z"/>
<path class="st10" d="M574.6,202.4c0,0.7-0.5,1.2-1.2,1.2c-0.7,0-1.2-0.5-1.2-1.2c0-0.7,0.5-1.2,1.2-1.2
	C574,201.2,574.6,201.7,574.6,202.4z"/>
<path class="st10" d="M574.6,214.4c0,0.7-0.5,1.2-1.2,1.2c-0.7,0-1.2-0.5-1.2-1.2s0.5-1.2,1.2-1.2
	C574,213.2,574.6,213.7,574.6,214.4z"/>
<path class="st10" d="M574.6,226.4c0,0.7-0.5,1.2-1.2,1.2c-0.7,0-1.2-0.5-1.2-1.2c0-0.7,0.5-1.2,1.2-1.2
	C574,225.1,574.6,225.7,574.6,226.4z"/>
<path class="st10" d="M574.6,238.3c0,0.7-0.5,1.2-1.2,1.2c-0.7,0-1.2-0.5-1.2-1.2c0-0.7,0.5-1.2,1.2-1.2
	C574,237.1,574.6,237.7,574.6,238.3z"/>
<path class="st10" d="M574.6,250.3c0,0.7-0.5,1.2-1.2,1.2c-0.7,0-1.2-0.5-1.2-1.2c0-0.7,0.5-1.2,1.2-1.2
	C574,249.1,574.6,249.7,574.6,250.3z"/>
<path class="st10" d="M574.6,262.3c0,0.7-0.5,1.2-1.2,1.2c-0.7,0-1.2-0.5-1.2-1.2c0-0.7,0.5-1.2,1.2-1.2
	C574,261.1,574.6,261.6,574.6,262.3z"/>
<path class="st10" d="M562.6,190.4c0,0.7-0.5,1.2-1.2,1.2c-0.7,0-1.2-0.5-1.2-1.2c0-0.7,0.5-1.2,1.2-1.2
	C562,189.2,562.6,189.7,562.6,190.4z"/>
<path class="st10" d="M562.6,202.4c0,0.7-0.5,1.2-1.2,1.2c-0.7,0-1.2-0.5-1.2-1.2c0-0.7,0.5-1.2,1.2-1.2
	C562,201.2,562.6,201.7,562.6,202.4z"/>
<path class="st10" d="M562.6,214.4c0,0.7-0.5,1.2-1.2,1.2c-0.7,0-1.2-0.5-1.2-1.2s0.5-1.2,1.2-1.2
	C562,213.2,562.6,213.7,562.6,214.4z"/>
<path class="st10" d="M562.6,226.4c0,0.7-0.5,1.2-1.2,1.2c-0.7,0-1.2-0.5-1.2-1.2c0-0.7,0.5-1.2,1.2-1.2
	C562,225.1,562.6,225.7,562.6,226.4z"/>
<path class="st10" d="M562.6,238.3c0,0.7-0.5,1.2-1.2,1.2c-0.7,0-1.2-0.5-1.2-1.2c0-0.7,0.5-1.2,1.2-1.2
	C562,237.1,562.6,237.7,562.6,238.3z"/>
<path class="st10" d="M562.6,250.3c0,0.7-0.5,1.2-1.2,1.2c-0.7,0-1.2-0.5-1.2-1.2c0-0.7,0.5-1.2,1.2-1.2
	C562,249.1,562.6,249.7,562.6,250.3z"/>
<path class="st10" d="M562.6,262.3c0,0.7-0.5,1.2-1.2,1.2c-0.7,0-1.2-0.5-1.2-1.2c0-0.7,0.5-1.2,1.2-1.2
	C562,261.1,562.6,261.6,562.6,262.3z"/>
<path class="st11" d="M466.8,282.2H152.1c-5.7,0-10.3-4.9-10.3-11V66.4c0-6.1,4.6-11,10.3-11h314.8c5.7,0,10.3,4.9,10.3,11v204.8
	C477.1,277.3,472.5,282.2,466.8,282.2z"/>
<path class="st12" d="M294.1,68.4c1.8,0,3.2-1.4,3.2-3.2s-1.4-3.2-3.2-3.2c-1.8,0-3.2,1.4-3.2,3.2S292.4,68.4,294.1,68.4z"/>
<path class="st12" d="M307.9,68.4c1.8,0,3.2-1.4,3.2-3.2s-1.4-3.2-3.2-3.2c-1.8,0-3.2,1.4-3.2,3.2S306.2,68.4,307.9,68.4z"/>
<path class="st12" d="M321.7,68.4c1.8,0,3.2-1.4,3.2-3.2s-1.4-3.2-3.2-3.2c-1.8,0-3.2,1.4-3.2,3.2S320,68.4,321.7,68.4z"/>
<path class="st1" d="M434.5,161.6L434.5,161.6c0.6,1.5,0,2.9-0.9,3.3c-0.9,0.4-2.3-0.3-2.9-1.8s0-3,0.9-3.3S433.9,160.1,434.5,161.6
	z"/>
<path class="st13" d="M325.8,265.1c5.4,0,5.4-6.4,10.7-6.4c5.4,0,5.4-8.5,10.7-8.5c5.4,0,5.4,3.3,10.7,3.3c5.4,0,5.4-7.9,10.7-7.9
	c5.4,0,5.4,12.4,10.7,12.4"/>
<path class="st14" d="M327.4,265.1c0-0.9-0.7-1.6-1.6-1.6c-0.9,0-1.6,0.7-1.6,1.6s0.7,1.6,1.6,1.6
	C326.7,266.6,327.4,265.9,327.4,265.1z"/>
<path class="st14" d="M394.7,266.2c0-0.9-0.7-1.7-1.7-1.7c-0.9,0-1.7,0.7-1.7,1.7s0.7,1.7,1.7,1.7
	C393.9,267.9,394.7,267.1,394.7,266.2z"/>
<path class="st15" d="M39.6,69h61.6c4.1,0,7.5-3.4,7.5-7.5V42.7c0-4.1-3.3-7.5-7.5-7.5H39.6c-4.1,0-7.5,3.4-7.5,7.5v18.8
	C32.2,65.7,35.5,69,39.6,69z"/>
<path class="st15" d="M99.5,67.1v8.2l-8.8-8.8L99.5,67.1z"/>
<path class="st16" d="M39.2,43.6h17.1"/>
<path class="st16" d="M62.4,43.6h39.2"/>
<path class="st16" d="M39.2,52.2h31.8"/>
<path class="st16" d="M75.9,52.2h9.4"/>
<path class="st16" d="M90.4,52.2h11.2"/>
<path class="st16" d="M39.2,60.8h7.2"/>
<path class="st16" d="M50.8,60.8h26"/>
<path class="st15" d="M422.9,38.6h-15.8c-2.9,0-5.3-2.4-5.3-5.3V17.4c0-2.9,2.4-5.3,5.3-5.3h15.8c2.9,0,5.3,2.4,5.3,5.3v15.8
	C428.2,36.2,425.8,38.6,422.9,38.6z"/>
<path class="st14" d="M424,23.9l-0.4-1.7c-0.1-0.3-0.4-0.5-0.8-0.5l-1,0.2c-0.3,0.1-0.5-0.1-0.7-0.3c-0.4-0.6-0.9-1.2-1.5-1.7
	c-0.2-0.2-0.3-0.5-0.2-0.8l0.5-1c0.2-0.3,0-0.7-0.3-0.8l-1.6-0.8c-0.3-0.2-0.7,0-0.8,0.3l-0.5,1.1c-0.1,0.3-0.4,0.4-0.7,0.3
	c-0.3,0-0.7-0.1-1-0.1c-0.4,0-0.7,0-1,0.1c-0.3,0-0.6-0.1-0.7-0.3l-0.5-1.1c-0.2-0.3-0.5-0.4-0.8-0.3l-1.6,0.8
	c-0.3,0.2-0.4,0.5-0.3,0.8l0.5,1c0.1,0.3,0,0.6-0.2,0.8c-0.6,0.5-1.1,1-1.5,1.7c-0.1,0.2-0.4,0.4-0.7,0.3l-1-0.2
	c-0.3-0.1-0.7,0.1-0.8,0.5l-0.4,1.7c-0.1,0.3,0.1,0.7,0.5,0.8l1.3,0.3c0,0.2,0,0.4,0,0.5c0,0.9,0.2,1.7,0.4,2.5
	c0.1,0.3,0,0.5-0.2,0.7l-0.5,0.4c-0.3,0.2-0.3,0.6-0.1,0.9l1.1,1.4c0.2,0.3,0.6,0.3,0.9,0.1l0.3-0.3c0.2-0.2,0.6-0.2,0.8,0
	c0.7,0.6,1.6,1,2.5,1.3c0.3,0.1,0.5,0.3,0.5,0.6v0.4c0,0.3,0.3,0.6,0.6,0.6h1.8c0.3,0,0.6-0.3,0.6-0.6v-0.4c0-0.3,0.2-0.5,0.5-0.6
	c0.9-0.3,1.7-0.7,2.5-1.3c0.2-0.2,0.6-0.2,0.8,0l0.3,0.3c0.3,0.2,0.7,0.2,0.9-0.1l1.1-1.4c0.2-0.3,0.2-0.7-0.1-0.9l-0.5-0.4
	c-0.2-0.2-0.3-0.5-0.2-0.7c0.3-0.8,0.4-1.6,0.4-2.5c0-0.2,0-0.4,0-0.5l1.3-0.3C423.8,24.6,424.1,24.3,424,23.9z M415,30
	c-2.5,0-4.5-2-4.5-4.5c0-2.5,2-4.5,4.5-4.5c2.5,0,4.5,2,4.5,4.5C419.5,28,417.5,30,415,30z"/>
<path class="st15" d="M563.1,143.3c1.6-10-5.1-19.4-15.1-21c-10-1.6-19.4,5.2-21,15.1s5.1,19.4,15.1,21
	C552.1,160.1,561.5,153.3,563.1,143.3z"/>
<path class="st17" d="M555.1,142.8c1.3-5.5-2.1-11.1-7.6-12.4c-5.5-1.3-11.1,2.1-12.4,7.7c-1.3,5.5,2.1,11.1,7.6,12.4
	C548.3,151.8,553.8,148.4,555.1,142.8z"/>
<path class="st15" d="M545.1,133.7v6.7l-3.5,3.6"/>
<path class="st13" d="M545.1,133.7v6.7l-3.5,3.6"/>
<path class="st13" d="M545.1,130.1v1"/>
<path class="st13" d="M545.1,149.7v1"/>
<path class="st13" d="M555.4,140.4h-1"/>
<path class="st13" d="M535.8,140.4h-1"/>
<g>
	<path class="st18" d="M374.2,33.3"/>
	<path class="st19" d="M475.2,205.2c0,12.6,0,25.3,0,38c-1.1-0.5-2.1-1.6-3.5-0.9c-0.7-0.1-1.4-0.2-2.1-0.3c3.7-3.2,4.8-6.1,0-9.4
		c-4.3-2.9-7.5-2.2-10.2,1.8c-2.6,0.8-5.4,1.6-8,0c-1.9-2.8-1-5.9-1.2-8.9c-0.3-0.4-0.6-0.8-0.8-1.3c-0.1-0.7-0.3-1.5-0.3-2.3
		c2.7-1.9-0.6-5,1.5-6.9c0.7-0.1,2-0.1,1.5-1c-0.5-1-1.2-0.3-1.8,0.3c-0.5-0.3-0.9-0.7-1.4-1c0.1-0.4,0.3-0.7,0.3-1.2
		c1.1-0.1,2.2-0.1,3.4-0.2c1.2,0,2.4,0,3.6,0c1.2,0.4,2.4,1.7,3.6,0c1.6-0.1,3.2-0.2,4.8-0.3c2.6,0.4,7,0.3,6.4-1.8
		C469.5,205.2,474,206.7,475.2,205.2z"/>
	<path class="st20" d="M250.7,51.4c-2.8-0.6-5.7-1.2-8.5-1.8"/>
	<path class="st21" d="M358.8,36.3c-2.7,1.2-5.4,2.3-8.3,3.5c-0.2-0.1-0.4-0.1-0.6-0.2"/>
	<path class="st22" d="M267.3,1.8c2.4,0,4.8,0,7.1,0c1.3,15.4,4.7,30.5,7.5,45.7c0.1,0.5,1.2,0.7,1.8,1.2h0.6
		c-0.1,0.7-0.3,1.4-0.3,2.2c-0.6,2.5-0.2,5,0.6,7.4c-0.6,0.1-1,0.2-1.6,0.3c-0.2-3.4-1-6.3-4.8-7.5c-0.1-0.7-0.2-1.6-0.3-2.4
		c0.1-1.1,0.3-2.2,0.3-3.3c1.7-1.9-0.2-3.1-0.9-4.6c-0.3-1.8-0.6-3.6-0.8-5.3c-2.3-8.3-4.8-16.6-7.1-25C268.7,7.6,266.8,5,267.3,1.8
		z"/>
	<path class="st23" d="M283.7,48.7c-0.7-0.4-1.7-0.7-1.8-1.2c-2.9-15.2-6.2-30.3-7.5-45.7c1.2,0,2.4,0,3.5,0
		c1.2,13.7,3.2,27.2,5.4,40.9C283.6,44.7,283.6,46.7,283.7,48.7z"/>
	<path class="st24" d="M156.7,100c0.4-0.7,0.8-1.3,1.3-2c3.2-0.9,6.1-2.4,8.9-4.4c0.9-0.4,2-0.7,3-1.2c0.4-0.1,0.8-0.3,1.3-0.3
		c2-0.4,3.9-0.7,5.9-1.2c0.4,0,0.8,0,1.2,0c0.8-0.1,1.5-0.1,2.3-0.2c0.4,0,0.8,0,1.2,0c0.8,0,1.5,0,2.3,0s1.8,0.1,2.6,0.1
		c1.5,0.1,3.1,0.2,4.6,0.3c0.7,0.1,1.4,0.3,2,0.3c0.3,0.7,0.5,1.3,0.7,2c-1.8-0.1-3.6,0.1-5.3-0.2c-11-1.8-20.7,1.2-28.8,7.9
		c-10.5,8.7-14.6,19.6-12.4,32.6c-0.1,1.2-0.3,2.4-0.3,3.6c-2.2-2.6-1.9-6-2.7-9c0.1-2.3,0.1-4.6,0.2-6.9c1.3-3.4,2.6-6.6,3.8-10
		c1.2-1.9,2.3-3.7,3.5-5.6C153.6,103.8,155.2,102,156.7,100z"/>
	<path class="st25" d="M430.4,217.4c-1.9,1.1-3.8,1.6-6,1.8c-4.3-1.1-8.5-2.2-12.9-3.3c-3.4-0.9-6.6-2-10-2.9
		c-14.4-7.1-30-11.3-44.9-17c2-4.6,5.2-8.3,8.8-11.9c14.4,3.5,28.8,6.9,43.2,10.4c2.8,0.7,5.6,1.6,8.4,2.3c4.3,1.7,8.7,3.5,13,5.1
		c1.2,1,0.8,3.2,3,3.5c0.1,1.4,0.1,2.9,0.2,4.4c-3.1,0-6,0-9,0C426.8,212.2,427.1,216.1,430.4,217.4z"/>
	<path class="st26" d="M411.6,215.8c4.3,1.1,8.5,2.2,12.9,3.3c-0.1,0.6-0.2,1.1-0.3,1.7c-1,2.2-2.1,4.4-3.2,6.5
		c-0.9,1.9-2,3.8-3,5.7c-0.5,0.7-0.9,1.4-1.4,2.2c-2.7,4.5-5.4,8.9-8.1,13.4c-3.8,1.5-5.2,5.1-7.5,7.9c-0.3,0.3-0.7,0.6-0.9,0.8
		c-2,1.9-3.8,3.8-5.8,5.7c-1.7,1.5-3.4,3-5,4.5l0.1-0.1c-2.8,2.2-5.6,4.4-8.4,6.6c-0.7-0.1-1.2-0.1-1.9-0.2c3.3-7,5.9-14.1,6.9-21.8
		c0.3-0.7,0.6-1.6,0.8-2.3c6.3-3.6,10-9.4,13.6-15C404.5,228.7,407.9,222.2,411.6,215.8z"/>
	<path class="st27" d="M436,216.1c-0.5,0.4-0.9,0.7-1.4,1.1c-1.4,0.1-2.9,0.2-4.3,0.2c-3.4-1.3-3.6-5.1-6.4-7.7c3.1,0,6,0,9,0
		C434.5,211.6,431.6,215.4,436,216.1z"/>
	<path class="st20" d="M445.5,132.6"/>
	<path class="st28" d="M440.8,122.7c1.3,2.9-2.4,3.6-2.9,5.7c-2,0.3-3.2-2.1-5.4-0.8c-1.3,0.7-2.3-0.2-2.1-1.5
		c0.4-5.1-3.7-7.4-6.6-10.6c-0.2-2.8,2.2-2.3,3.9-2.7c0.1,0.2,0.1,0.4,0.2,0.6C432.2,116.3,437.1,118.7,440.8,122.7z"/>
	<path class="st28" d="M411.4,81.9c-2.6,4.6-5.1,9.3-7.7,13.7c-0.7,0.1-1.4,0.1-2.1,0.2c0.3-3.2,2.5-5.6,3.7-8.4
		c3.3-7.1,6.8-14,5.6-22.2c-1.4-9.1-9.8-14.9-19-12.5c-2.8,0.7-5.4,2.2-8,3.4c0.3-0.9,0.6-1.9,0.8-2.8c0.8-0.6,1.8-1.1,2.6-1.7
		c2-0.8,3.8-1.8,5.9-2.6h0.2c3.2-0.2,6.3-0.1,9.4,0.7c1,0.7,2.1,1.3,3.2,1.9c1.6,1.9,3.2,3.6,4.8,5.4
		C414,65.1,414.7,73.5,411.4,81.9z"/>
	<path class="st28" d="M350.5,39.8c2.7-1.2,5.4-2.3,8.3-3.5c0.4-0.3,0.8-0.5,1.3-0.7c2-0.2,3.9-0.3,5.9-0.4
		c8.3-0.7,14.6,4.5,14.5,14.8c-0.3,3,0.6,6.5-3.6,7.9c0.2-0.6,0.3-1.1,0.5-1.6c2.3-6.6-1.4-11.1-6-15.7c-4-4.1-7.7-2.9-12.2-1.1
		c-2.6,1-5.8,1.1-8.7,1.7C350.5,40.6,350.5,40.2,350.5,39.8z"/>
	<path class="st19" d="M376.9,57.9c4.2-1.4,3.4-4.9,3.6-7.9c3.3-1.3,2-3.9,2.2-6.2c0.3-2.1-0.7-4.3,1.1-6.9c2,2.4,0.8,5.1,1.4,7.4
		c0.6,3-2.2,5.9-0.3,8.9c-0.3,0.9-0.6,1.9-0.8,2.8c-0.4,0.8-0.8,1.7-1.1,2.5c-2,1.2-0.8,2.8-0.7,4.2c-1.4,0.2-2.8,0.5-3.7,1.5
		c-0.8,0-1.7-0.1-2.6-0.1l-0.2-0.3v-0.2c0-1,0-2-0.1-3C376.5,59.8,377.1,58.9,376.9,57.9L376.9,57.9z"/>
	<path class="st20" d="M388.5,45.3"/>
	<path class="st20" d="M393.4,48.9h-0.2"/>
	<path class="st29" d="M388.5,45.3c-0.4,2.1-0.7,4.1-1.1,6.1c-0.8,0.6-1.8,1.1-2.6,1.7c-2-3,0.8-6,0.3-8.9"/>
	<path class="st21" d="M291.1,40.9L291.1,40.9"/>
	<path class="st30" d="M233.9,288.8c-0.7-0.4-1.4-0.8-2.1-1.3c-2-2.2-3.7-4.4-5.7-6.5c-0.7-1.5-1.5-2.9-2.2-4.5
		c0.6-2.9,0.3-5.4-2.6-7.1c0.7-2.7,1.5-5.4,2.2-8.1c1.7-4,3.3-8,7.2-10.7c8.9-6.6,18.5-9.3,29.5-5.1c0.5,0.3,0.9,0.7,1.4,1
		c-0.1,0.4-0.2,0.7-0.3,1.1c-2.7,3.6-5.4,7.1-8.1,10.7c-2.1,2.7-4.2,4.4-7.4,1.1c-1.4-1.5-3.4-4.8-5.1-3.5c-2.5,1.9,1.4,3.9,2,6
		c0.1,0.2,0.3,0.3,0.4,0.4c0.1,0.7,0.2,1.2,0.3,1.9c-3.9,1.2-8.4-0.3-12.8,1.9c3.5,3.9,8.2,2.9,12.1,3.8c0,0.7,0.1,1.3,0.1,2.1
		c-3,5.3-5.1,10.8-4.2,17.1C237.2,288.9,235.5,288.9,233.9,288.8z"/>
	<path class="st26" d="M223.4,261.4c-0.7,2.7-1.5,5.4-2.2,8.1c-0.7,2-2,1.9-3.4,0.7c-2-1.4-3.7-2.9-5.6-4.5l-0.3-0.2
		c-3.7-3.5-7.3-6.7-11-10.2c-0.7-1.1-1.3-2.2-2-3.5c4.2-2.3,9.6-1.8,13.4-5.1c1.4,3.9,4.4,6.6,7.7,8.9
		C222.2,257.4,223.4,258.9,223.4,261.4z"/>
	<path class="st31" d="M452.7,136.9"/>
	<path class="st28" d="M448.1,221.5c-2.4-1-4.8-2-7.3-3c-0.7-2.3-3.2-1.6-4.7-2.4c-4.5-0.7-1.6-4.5-3.2-6.5c0-1.4-0.1-2.9-0.2-4.3
		c0.3,0.3,0.7,0.7,1,0.9c1,4,5.9,4.1,8.2,6.7c1.1,0.8,2.1,0.9,3.4,0.1c-0.2-0.2-0.2-0.4-0.1-0.7c1.1,0.3,2.3,0.4,3.4,0.7
		c0.5,0.3,0.9,0.7,1.4,1c0.1,0.3,0.2,0.5,0.3,0.7c-2.1,2,1.2,5.1-1.5,6.9C448.7,221.7,448.3,221.6,448.1,221.5z"/>
	<path class="st28" d="M463.5,241.6c-0.1-3.1-1.9-5.4-4.1-7.4c2.7-3.9,6-4.7,10.2-1.8c4.8,3.4,3.6,6.3,0,9.4c-0.3,0.3-0.4,0.7-0.7,1
		l-0.5,0.1c-0.9-0.4-1.9-0.7-2.8-1.1C464.8,241.9,464.2,241.8,463.5,241.6z"/>
	<path class="st18" d="M452.5,211.9c-1.1,0.1-2.2,0.1-3.4,0.2"/>
	<path class="st29" d="M448.9,228.6c0.1-1.2-0.1-2.4,1.2-3.3c0.2,3-0.6,6.1,1.2,8.9l0,0C448.2,233.3,449.5,230.6,448.9,228.6z"/>
	<path class="st32" d="M450.6,215c-0.1-0.3-0.2-0.5-0.3-0.7c0.5-0.6,1.3-1.3,1.8-0.3C452.4,214.9,451.2,214.9,450.6,215z"/>
	<path class="st18" d="M448.1,221.5c0.3,0.1,0.7,0.2,0.8,0.3c0.1,0.7,0.2,1.5,0.3,2.3C448.2,223.6,448.1,222.5,448.1,221.5z"/>
	<path class="st26" d="M283.9,50.9c9.1-0.1,18.2-0.1,27.3-0.2c6.1-0.4,11.8,2,17.8,2.3c0.4,0.1,0.7,0.2,1.1,0.2
		c1.6,0.3,3.2,0.7,4.8,1c0.8,0.3,1.8,0.7,2.6,1c-1.1,4.2-2.2,8.3-3.4,12.5c-8.6-3.1-17.5-4.3-26.7-4.7c-5.4-4.8-8.3-4.8-13.9,0.1
		c-4.8,0.8-7.1-2-9.2-5.1C283.7,55.9,283.4,53.4,283.9,50.9z"/>
	<path class="st21" d="M326.5,47.8"/>
	<path class="st18" d="M181.8,90.9c-0.4,0-0.8,0-1.2,0C181,90.9,181.4,90.9,181.8,90.9z"/>
	<path class="st18" d="M178.2,91c-0.4,0-0.8,0-1.2,0C177.4,91,177.8,91,178.2,91z"/>
	<path class="st33" d="M368,289.7c-0.3,0.5-0.7,0.8-1,1.3c-5.1,4.5-9.4,9.9-15.4,13.5c0.1-2,1.4-3.4,2.6-4.9
		c6.1-6.7,13.5-12.5,17.3-20.9c0.8-1.8,2.4-1.7,3.9-1.9c0.1,3.6-3.6,5.5-4.7,8.7C370,287.1,369.1,288.4,368,289.7z"/>
	<path class="st27" d="M350.5,41c2.9-0.6,6-0.7,8.7-1.7c4.4-1.8,8.2-2.9,12.2,1.1c4.5,4.6,8.3,9.1,6,15.7c-0.2,0.6-0.3,1-0.5,1.6
		c0,0-0.1,0-0.2,0c-2.6-0.3-3.6,0.7-2.6,3.1c-2.6,2.3-5.3,4.5-7.9,6.8c-3.4,4.8-3.4,11.1-8,15.2c-3.1,2.6-5.7,8-10.8,4.9
		c-4.5-2.8-7.5-7.1-8.9-12.4C336.1,67,339,59.6,341,52l0,0c1.2-0.3,1.4-1.2,1.6-2.2C345.2,47,347.9,44,350.5,41z"/>
	<path class="st28" d="M340.9,52.1c-2,7.7-4.8,15.1-2.6,23.3c1.4,5.4,4.5,9.8,8.9,12.4c5.2,3.2,7.8-2.3,10.8-4.9
		c4.7-4,4.7-10.4,8-15.2c3.6-0.7,5.4,0.2,5.6,3.9c0.1,2.7,0.9,5.4,1.4,8.1c-1.5,1.7-5,3.2-2.3,5.7c2.7,2.5,0.8,3.2-0.8,4.6
		c-2.3,2-5.1,4-3.7,7.5c1.4,3.6,4.6,6.1,8.7,6.7c3.3,0.6,6.5,0.2,10-0.7c2.4-0.6,4.7-2.3,7.3-1.3c0,0.4-0.1,0.7-0.2,1.1
		c-2.4,1.3-4.8,2.5-7.2,3.8c-5,1.1-10.1,3.2-15.4,0.6c-7.5-3.7-14.2-9.2-22.9-10.6c-0.8-0.2-1.4-1.3-2.1-1.8
		c-7.1-4.6-9.1-11.6-10.4-19c0.1-2.9,0.1-5.7,0.2-8.6c1.1-4.2,2.2-8.3,3.4-12.5c0.4-0.7,0.8-1.4,1.3-2.2
		C339.6,52.9,340.2,52.4,340.9,52.1z"/>
	<path class="st28" d="M342.5,49.9c-0.2,0.9-0.5,1.9-1.6,2.2C340.7,50.8,341.2,50.1,342.5,49.9z"/>
	<path class="st33" d="M242.3,49.7c2.8,0.6,5.7,1.2,8.5,1.8l0.4,0.3h0.5c0.8,0.7,1.4,1.9,2.8,0.7c2.3,0.1,2.1,2.9,4.3,3.4l0.2,0.1
		c0.2,0.4,0.3,0.7,0.4,1.1c1.6,4,6.4,6.3,7.3,10.8c-1.1,3.1,1.6,6.2-0.2,9.3c-0.1,0.6-0.1,1.2-0.2,1.8c-3.2,3.6-6.6,7.1-7.1,12.2
		l-0.2,0.5l-0.5,0.1c-1.4,0-2.5,0.4-3,1.8c-0.1,0.4-0.3,0.6-0.7,0.6c-9.4,1.3-18.9,2-28.2,0c-1.9-0.7-3.7-1.4-5.6-2.2
		c-2.1-2.6-4-5.4-3.6-9c-1.4-5.7-0.9-11.6-1-17.4c0.1-0.3,0.3-0.7,0.5-0.8c2-1.2,2.7-3,3-5.1c0.1-0.3,0.3-0.4,0.5-0.6
		c0.3-0.4,0.7-0.7,0.8-1.2c0.3-0.3,0.6-0.7,0.8-0.9l0.3-0.3c0.5-0.7,0.9-1.3,1.4-2c0.4,0,0.7-0.3,0.7-0.6l0.3-0.4
		c0.7,0,1.2-0.3,1.3-1v0.1c2.4-0.8,4.8-1.8,7.3-2.6C236.1,49.6,239.3,49.6,242.3,49.7z M237.6,78.9c-0.4,0-0.8,0-1.2,0
		c-0.5,0.1-0.8,0.2-1.4,0.3c-0.5-1.2-0.6-2.7-2.5-2.9c-0.3-0.3-0.5-0.5-0.5-0.8l0.2-0.4l-0.4-0.3c-0.2-0.5-0.3-1-0.6-1.5
		c-0.8-7,7.1-6,10.3-9.3c-3-2.5-6.5-2.6-8.8-1.5c-2.9,1.4-4.3,5.1-7.5,6.6c0.5,0.3,0.9,0.6,1.4,0.7c-0.3,1.2-1.4,2.2-0.7,3.6
		c-0.2,1.9-3.3,2.2-2,5.5c3.7,8.8,18.5,13.7,27,8.3c1.4-0.9,2-2.1,0.8-3.3c-3.2-3.4-1.2-5.1,2-6.6c0.9-0.5,1.8-1.5,2.2-2.4
		c0.8-1.8,0.1-3.7-1.4-4.4c-2.1-0.8-2.5,0.7-3.2,2.5c-0.9,2.9-3.2,5.2-5.6,7.3c-2.5,0.7-4.3-2.9-7-1
		C238.5,79.3,238.1,79.2,237.6,78.9z"/>
	<path class="st26" d="M299.4,300.2c-0.7-0.1-1.4-0.3-2.1-0.3c-2.6-2.2-5.7-0.4-8.5-0.7c-0.4-0.2-0.7-0.3-1.1-0.3
		c-4.8-2.4-10.3-1.9-15.6-2.9c-2-0.5-3.9-0.9-6-1.4c-1.4-0.4-2.9-0.7-4.3-1.2c-1-0.4-2.1-0.7-3.2-1.3c4.3-3,10.5-3.8,12.1-9.7
		c0.3-0.2,0.7-0.3,1-0.3c7.1,2.2,14.3,3.5,21.6,3.5c5.8,5.1,8.5,5.1,14.4,0.1c2.6-0.3,5.3-0.4,7.9-0.7c1.3,3.4,2.6,6.6,3.8,9.9
		c0.1,0.9,0.2,2,0.3,2.9c-0.8,0.1-1.5,0.2-2.3,0.3c-2,0.1-4.2-0.7-5.2,1.8c-0.7-0.1-1.4-0.1-2.1-0.2c-0.5-1.4-1.6-0.9-2.6-0.7
		c-0.4,0-0.8,0-1.2,0c-1.2,0-2.4,0-3.5,0C301.4,298.3,300.4,299.3,299.4,300.2z"/>
	<path class="st19" d="M178.1,253.2h-0.5h-0.5c-1.9,0.3-3-2.2-4.9-1c-4.1,0.7-3.7-2.8-5-4.6c0.2-1.3-0.6-1.9-1.6-2.6
		c-7.9-5.1-15.8-10.1-15.7-20.5c0.2-5.3-7-10.8,0.7-16c0.2-0.2,0.1-0.7,0-1c-0.8-3.9-0.1-8.3-3.2-11.7v-0.1c2-1.4,2.5-2.9,0-4.2
		l0.1-0.5c0.5-0.7,0.9-1.6,1.4-2.3c1.4-0.9,2.6-2.2,4.6-2.3c1.1,0,2.3,0,3.4,0c4.4,0.2,8.9,0.1,8.9,6.1c0,1.3,1.9,1.8,3.2,2.1
		c-0.3,4,2.8,5.3,6,6.5c0.8,0.3,2.1,0.5,1.5,1.8c-0.5,1-1.7,0.7-2.6,0.6c-4.1-2.8-6.9-0.6-8.7,2.6c-2.6,4.9,3.2,4.4,5,6.4
		c0.8,2.5,3.1,1.9,4.8,1.9c3.5,0.1,7.5-1.3,8.9,3.9c0.3,1.4,4,3,5.3,0.8c1.8-3,4.8-4.4,6.9-7c2.1-2.9,3.7-6.5,8.4-6.6l0,0
		c-2.5,4.5-5.9,8.7-5.3,14.2c0,0.4-1.1,0.8-1.7,1.3c-0.3-0.7,0.5-2.3-0.9-1.9c-2.6,0.8-5,3-4.9,5.5c0.1,2.6,2.7,3.7,5.7,3.1
		c2.3,1.7,1,4.1,1.6,6.2c0.4,1.6,0.7,3.6,2.3,4.2c1.8,0.6,1.9-2.2,3.4-2.4h-0.1c0.1,0.5,0.3,0.9,0.3,1.4c5,1.9,11.5,2.8,7.6,10.4
		c-3.7,3.3-9.2,2.6-13.4,5.1c-2.4,1.5-6.7-1-7.9,3.3c-1,0.2-2.1,0.3-3.1,0.4C184.6,255.7,181.7,252.8,178.1,253.2z M160.7,208
		c0.2-0.3,0.4-0.7,0.3-0.7c-0.1-0.3-0.6-0.3-0.8-0.4c-0.2,0.3-0.4,0.7-0.3,0.7C160,207.8,160.4,207.8,160.7,208z"/>
	<path class="st29" d="M360,35.6c-0.4,0.3-0.8,0.5-1.3,0.7"/>
	<path class="st29" d="M355.8,33.8"/>
	<path class="st18" d="M287.7,298.8"/>
	<path class="st26" d="M266.5,67.5c-0.9-4.5-5.7-6.6-7.3-10.8c0.4-0.4,0.8-0.7,1.3-1.2c2.5-1.8,5.4-0.2,8.1-1.3
		c1.2-0.2,3,0.4,2.6-1.8c2.2-0.9,5,0.7,7-1.4c3.8,1.2,4.8,4.1,4.8,7.5c-0.7,2,2.6,5.3-1.6,6C276.3,65.3,271.8,68.1,266.5,67.5z"/>
	<path class="st23" d="M266.5,67.5c5.3,0.7,9.9-2.2,14.8-3c4.3-0.7,0.9-3.9,1.6-6c0.6-0.1,1-0.2,1.6-0.3c2.1,3.1,4.6,6,9.2,5.1
		c-0.8,3-0.7,6,1.2,8.7c-1.1,0.2-2.1,0.4-2.8,1.4c-3.8-1.3-4.4-5.1-6.6-8c-0.7,2.9,0.8,5.5-1.1,7.9c-6.3-0.3-11.8,3.1-18,3.5
		C268.2,73.8,265.4,70.6,266.5,67.5z"/>
	<path class="st27" d="M379.3,273.9c-1.2,1-2.3,2.1-3.5,3.1c-1.5,0.2-3.2,0.1-3.9,1.9c-3.8,8.4-11.3,14.2-17.3,20.9
		c-1.3,1.4-2.6,2.8-2.6,4.9l0.1-0.1c-3.3,0-6,1.9-8.7,3c-5.4,2.3-11.1,4.9-15.3,9.1c-0.7-0.7-1.4-1.5-2.1-2.3
		c-1.2-3.7-2.3-7.4-3.5-11.1c2,0.4,3.8,0.7,5.8,1c2.6,0.3,5.2,0.7,6.2-2.5c0.7-0.3,1.4-0.4,2.1-0.7c5.2-3.2,10.7-5.9,13.1-11.8
		c8.9-6.2,16.2-13.3,18.3-24c0.2-0.7,1.2-1.4,1.7-2.2c4.6-7.6,9-15.1,3.6-24c-0.7-1.1-0.2-2.9-0.3-4.4c4.1-1.1,8.3,0,12.5-0.4
		c0.4,6-1.1,12,0.8,17.9C385.1,259.8,382.4,267,379.3,273.9z"/>
	<path class="st25" d="M334.1,301.9c-0.9,3.3-3.7,2.9-6.2,2.5c-2-0.3-3.8-0.7-5.8-1c-0.7-1.9-1.5-3.6-2.2-5.4
		c-0.1-0.9-0.2-2-0.3-2.9c2.9,3.1,6,5.8,10.6,6.3c-0.3,0.1-0.7,0.2-1,0.2c0.1,0.2,0.3,0.3,0.3,0.6c0.3-0.3,0.6-0.5,0.8-0.7
		C331.6,301.4,332.8,301.7,334.1,301.9z"/>
	<path class="st33" d="M351.7,304.6c-0.5,0.7-0.8,1.3-1.4,1.9c-2.4,1.4-4.8,2.9-7.2,4.4c-1.6,0.8-3.2,1.7-4.8,2.5
		c-0.8,0.4-1.7,0.7-2.6,1.1c-2,0.7-3.7,1.3-5.7,2.1c-0.8,0.1-1.5,0.2-2.3,0.2c4.3-4.3,9.9-6.7,15.3-9.1
		C345.8,306.5,348.5,304.6,351.7,304.6z"/>
	<path class="st25" d="M258.7,291.9c-3.5,1.8-7.4,2.2-11.3,2.2c-4.6-0.9-8.9-2.6-13.2-4.4c-0.1-0.3-0.2-0.7-0.3-0.9
		c1.7,0.1,3.4,0.3,4.9,0.3l0.3-0.1c0,0,0.3,0.1,0.4,0.1c5.4,2.6,10.5,3.5,16.8,1.4c5.7-1.8,9-6.4,14.4-8.2
		C269.1,288.1,262.9,288.9,258.7,291.9z"/>
	<path class="st27" d="M194.1,93.4h0.3c3.6,0.5,6.6,2.2,9.7,3.9c10.9,6.1,17.8,14.4,18.8,26.7c0.5,6.3-0.3,12.4-0.5,18.7
		c0,1.9-1.4,3.2-2.6,4.5c-1,0.4-1.4,1.1-1,2.2l0,0c-6.2,1.7-8.9,7.6-14.4,10c-4.3,0.4-8.6,0.4-12.2,3c-0.7,0.1-1.4,0.3-2.1,0.3
		c-0.3-0.1-0.7-0.1-0.9,0c-0.8-0.1-1.6-0.1-2.4-0.2c-0.5,0-0.8,0-1.4,0c-1-0.1-2.1-0.1-3.2-0.2c-0.8-0.3-1.6-0.6-2.4-0.8
		c-6.5-1.9-13.6-2.6-18-8.3c-2-2.6-4.6-4.5-7.4-6.1l0.2,0.1c-0.8-1.6-1.9-3.2-2.7-4.8c0.1-1.1-0.6-1.7-1.7-1.9
		c-0.5-1.2-0.9-2.3-1.4-3.5c0.7-1.3,0.8-2.7-0.9-3.5c-2.1-13,2-23.9,12.3-32.5c8.2-6.7,17.9-9.6,28.8-7.9
		C190.4,93.5,192.2,93.3,194.1,93.4z M217.7,124.7c-0.4-9.4-4.3-16.6-13-22.1c-6.7-4.4-13.5-4.8-21.1-5.5c-7.9-0.7-15.1,0.5-20,5.8
		c-4.7,5.1-8.9,10.8-10.9,17.5c-2.1,6.6-1.4,13.1,2.5,19.3c3.5,5.5,8.9,9.2,14.1,13.1c1.8,1.3,3.9,2.6,6.2,3
		c10.7,1.9,21,0.8,30.8-4.5c9.4-5.3,11.7-13.4,11.7-22.6C218.9,127.2,219.1,125.9,217.7,124.7z"/>
	<path class="st33" d="M147.6,133.6c1.9,0.7,1.6,2.1,0.9,3.5c-0.4,0-0.8,0-1.3,0.1v0.2C147.4,135.9,147.5,134.8,147.6,133.6z"/>
	<path class="st26" d="M430,202c-4.3-1.7-8.7-3.5-13-5.1c0.6-5.1,3.4-9.9,0.9-15.2c6.2-5.8,6.3-8.7,0.3-14.5
		c0.5-0.7,0.9-1.5,1.4-2.3c4.3,0.7,8.4,2,12.9,0.8c0.3,1,0.5,2,0.8,3c0.1,1.3,0.2,2.7,0.3,4c-0.1,2.9-0.1,5.9-0.2,8.8
		c-0.1,1.1-0.2,2.3-0.3,3.5C431.9,190.7,430.9,196.3,430,202z"/>
	<path class="st23" d="M386.8,237.9c6-7.8,12.3-15.3,14.8-25c3.4,0.9,6.6,2,10,2.9c-3.7,6.4-7.1,12.8-11.1,18.9
		c-3.7,5.5-7.3,11.4-13.6,15C386.8,245.8,386.8,241.8,386.8,237.9z"/>
	<path class="st23" d="M417.9,181.6c2.5,5.2-0.5,10.2-0.9,15.2c-2.8-0.7-5.6-1.6-8.4-2.3c0.5-4.6,0.9-9.3,1.4-13.8
		C412.5,181.8,415.3,181.6,417.9,181.6z"/>
	<path class="st28" d="M386.8,237.9c0.1,3.9,0.1,7.9,0.2,11.9c-0.3,0.7-0.6,1.6-0.8,2.3c-2-5.9-0.6-11.9-0.8-17.9
		c0.4,0.1,0.8,0.2,1.2,0.2c0,0.2-0.2,0.3-0.1,0.5c0.1,0.3,0.3,0.6,0.3,0.8C386.7,236.5,386.7,237.1,386.8,237.9z"/>
	<path class="st30" d="M432.4,165.7c-4.4,1.1-8.6,0-12.9-0.8c-3.3-1.4-6.5-2.9-9.8-4.4c-1.7-3.2,1.6-6.4-3.3-6
		c-4.2,0.3-9.2-3.8-11.4-6.1c1.4-0.2,2.9-0.3,4.3-0.4c1.4,3.5,3.8,3.8,6.6,1.5c2-1.7,4.3-2.6,6.6-3.3c6-1.7,7-6.7,8.4-11.1
		c1.1-3.3-6.3-1.6-4.9-5.9c-2.9,2.9-5.3-5.8-8.3-0.3c-0.2,0-0.3,0-0.5,0c0,0.3,0.1,0.5,0.1,0.7c-0.2,0.3-0.4,0.5-0.7,0.7
		c-4.5-0.2-8.8,0.1-8.3,6c0.2,0.3,0.3,0.6,0.5,0.7c-1.2,0.3-2.1,1-2.1,2.3c0,1,0.8,0.9,1.7,0.7c0.4,0.1,0.8,0.3,1.2,0.3
		c-0.8,1.5-2.3,3.1,0.1,4.5c-0.2,0.5-0.3,0.9-0.5,1.5c-1.4,0.7-2.8,1.4-4.2,2.2c-1.4-7.4-3.7-14.9,2.9-21.2c2.7-1.6,7.4-0.4,8.1-5
		c2.5-3.6,5.1-7,8.8-9.6c0.7,0.3,1.4,0.6,2.1,0.8c0.8,0,1.6,0.1,2.4,0.1c1.4,0.7,2.8,1.3,4.2,1.9c2.9,3.2,7,5.5,6.6,10.6
		c-0.1,1.3,0.8,2.2,2.1,1.5c2.2-1.2,3.5,1.1,5.4,0.8c1.4,2.1,0.9,4.3,0.7,6.5c-0.9,1.1-1.9,2.2-2.8,3.3c-0.7,0.3-1.6-0.1-1.8,0.8
		l-0.3-0.5c-0.7-0.9-1.4-2.1-2.6-1c-0.5,0.5,0.8,0.8,1.4,1.1l-0.1,0.3c-0.6,0.6-0.8,1,0.3,1.1c0.2-0.1,0.4-0.2,0.6-0.2
		c2.5,1.5,2.8,4.9,5.9,6c2.5,3.5-0.9,7.7,1.4,11.2c-0.7,2.4-2.8,3.7-4.7,5.2l-0.2,0.2c-0.7,0.2-1.4,0.4-2.1,0.6
		C430.8,162.8,432.9,164.8,432.4,165.7z"/>
	<path class="st26" d="M414.8,112.6c-3.6,2.6-6.2,6.1-8.8,9.6c-4.9-6.1-8.4-13.1-14-18.7c0.1-0.4,0.1-0.7,0.2-1.1h-0.1
		c0.9-0.1,2.1,0.2,2.4-1.1l0,0c0.4-0.4,0.8-0.7,1.3-1.2l-0.1,0.1c0.9-0.4,2-0.7,3-1.2c0.4,0,0.6-0.2,0.6-0.5
		c0.8-0.9,1.6-1.9,2.4-2.9l-0.1,0.1c0.7-0.1,1.4-0.1,2.1-0.2c1.6,0.7,1.6,3.2,3.7,3.4l0.4,0.3l0.5-0.1c1.1,3.3,2.5,6.5,4.8,9.3
		C413.7,109.8,414.2,111.2,414.8,112.6z"/>
	<path class="st27" d="M399.2,98.5c0,0.4-0.2,0.6-0.6,0.5c-1.4-0.4-2.6-0.5-3,1.2l0.1-0.1c-0.8-0.1-1.4,0.3-1.3,1.2l0,0
		c-1.3-0.6-2.1-0.3-2.4,1.1h0.1c-2.7-1.1-4.9,0.7-7.3,1.3c-3.3,0.7-6.6,1.2-10,0.7c-4.1-0.7-7.2-3.1-8.7-6.7
		c-1.4-3.5,1.4-5.5,3.7-7.5c1.6-1.3,3.5-2.1,0.8-4.6c-2.7-2.5,0.8-4,2.3-5.7c2.4,0.3,2.9-0.7,2.6-2.9c-0.4-4.3,0.8-7.9,6-9.5
		c1.5-0.5,4.9-1.2,2.5-4.3c-0.4-1.6,0.1-3.4-1.4-4.6c0.4-0.8,0.8-1.7,1.1-2.5c2.6-1.1,5.2-2.6,8-3.4c9.2-2.3,17.5,3.6,19,12.5
		c1.3,8.2-2.2,15.1-5.6,22.2c-1.3,2.8-3.5,5.2-3.7,8.4l0.1-0.1C399.2,95.4,398.6,96.6,399.2,98.5z"/>
	<path class="st33" d="M384.3,63.1c2.5,3.1-0.9,3.8-2.5,4.3c-5.1,1.6-6.4,5.1-6,9.5c0.3,2.3-0.2,3.2-2.6,2.9
		c-0.5-2.7-1.4-5.4-1.4-8.1c-0.2-3.8-2-4.8-5.6-3.9c2.6-2.3,5.3-4.5,7.9-6.8c0.6-0.1,1-0.2,1.6-0.3c0,1,0,2,0.1,3
		c-0.2,0.1-0.3,0.2-0.4,0.3c0.2,0,0.3-0.1,0.4-0.1l0.2,0.3c0.8,1.7,1.7,1.8,2.6,0.1c0.9-1.1,2.3-1.3,3.7-1.5
		C382.9,62.9,383.7,63,384.3,63.1z"/>
	<path class="st28" d="M384.3,63.1c-0.7-0.2-1.4-0.3-2.1-0.4c-0.2-1.4-1.4-3,0.7-4.2C384.4,59.7,383.9,61.5,384.3,63.1z"/>
	<path class="st28" d="M375.6,60.8c-0.6,0.1-1,0.2-1.6,0.3c-0.9-2.3,0-3.4,2.6-3.1C377,59,376.4,59.8,375.6,60.8z"/>
	<path class="st28" d="M378.4,64.3c-0.9,1.6-1.8,1.6-2.6-0.1C376.8,64.2,377.6,64.2,378.4,64.3z"/>
	<path class="st28" d="M375.7,63.9c-0.2,0-0.3,0.1-0.4,0.1c0.2-0.1,0.3-0.2,0.4-0.3V63.9z"/>
	<path class="st23" d="M205.4,225.3c5.1,5.8,9.1,12.4,14.8,17.9c3.2,3,6.5,5.5,10.4,7.5c-3.9,2.6-5.6,6.6-7.2,10.7
		c0-2.3-1.3-3.9-3.4-5.5c-3.3-2.3-6.3-5.1-7.7-8.9c3.7-7.6-2.6-8.5-7.6-10.4c0.4-0.6,0.6-1.1-0.3-1.4h0.1
		C204.8,231.9,205.1,228.5,205.4,225.3z"/>
	<path class="st19" d="M243.3,262.4c-0.2-0.2-0.3-0.3-0.4-0.4c-0.6-2.2-4.4-4.1-2-6c1.8-1.3,3.7,1.9,5.1,3.5
		c3.2,3.4,5.3,1.6,7.4-1.1c0.7,0.4,1.2,0.7,1.9,1.3c-1.2,3.1-1.1,5.8,2.6,7.2c-4.8,2.3,0.4,4.8-0.2,7.1c-0.9,0.1-1.9,0.2-2.8,0.3
		c-1.4-0.4-2.8-0.8-4.2-1.3c-2-2.7,4.6-3.7,1.3-7.1c-2.4-2.3-5.2-2.9-8.3-3.5C243.8,262.4,243.5,262.4,243.3,262.4z"/>
	<path class="st19" d="M239.6,289l-0.3-0.1l-0.3,0.1c-0.9-6.2,1.2-11.8,4.2-17.1c2.1,0.7,4.8-3.1,6.5,0.7c-0.8,1.2-1.8,2.3-2.7,3.5
		C243.4,280,241.9,284.7,239.6,289z"/>
	<path class="st31" d="M249.5,272.8c-1.7-3.8-4.3,0-6.5-0.7c0-0.7-0.1-1.3-0.1-2.1c0.7-1.9,3.8-3.5,0.6-5.7
		c-0.1-0.7-0.2-1.2-0.3-1.9c0.2,0,0.4,0,0.6,0c3.1,0.6,5.9,1.1,8.3,3.5c3.2,3.3-3.3,4.4-1.3,7.1
		C250.4,272.9,249.9,272.8,249.5,272.8z"/>
	<path class="st19" d="M243.5,264.3c3.3,2.2,0.1,3.8-0.6,5.7c-4-0.9-8.7,0.2-12.1-3.8C235.1,264,239.6,265.4,243.5,264.3z"/>
	<path class="st28" d="M255.2,259.6c-0.7-0.4-1.2-0.7-1.9-1.3c2.7-3.6,5.4-7.1,8.1-10.7l-0.1-0.1c0.1,0.7,0.1,1.2,0.2,1.9
		c0.9,1.2,0.5,2.5,0.3,3.8c-0.6,0.7-1.1,1.2-1.7,1.9C258.5,256.5,256.9,258,255.2,259.6z"/>
	<path class="st25" d="M260.2,245.6c0.9-0.2,1.8,0.2,2.3,0.9c-0.3,0.1-0.6,0.1-0.8,0.1C261.2,246.3,260.7,245.9,260.2,245.6z"/>
	<path class="st28" d="M261.6,246.7c0.3,0,0.6,0,0.8-0.1v-0.1c-0.3,0.4-0.7,0.7-1,1.1l0.1,0.1C261.5,247.4,261.6,247,261.6,246.7z"
		/>
	<path class="st27" d="M442.1,213c0.4,0.1,0.7-0.1,1-0.3c0.8,0.2,1.5,0.3,2.3,0.4C444.3,214,443.2,214,442.1,213z"/>
	<path class="st24" d="M219.5,107c3.8,7.8,6.9,15.7,6.2,24.5c-0.3,3.9-0.2,8.2-3.5,11.3c0.3-6.2,1-12.3,0.5-18.7
		c-1-12.4-7.9-20.8-18.8-26.7c-3.1-1.7-6.1-3.5-9.7-3.9c0.7-1,1.8-1.3,3.1-0.9c1.1,1.3,3,0.7,4.3,1.2c4,2.3,7.9,4.7,11.9,7.1
		C215.6,102.8,217.6,104.9,219.5,107z"/>
	<path class="st28" d="M214.9,81.1c0-1.3,0.2-2.6-0.7-3.8c0-3-0.1-6-0.1-9c0.7-1.1,1.4-2.2,2.1-3.5c0.1,5.8-0.3,11.7,1,17.4
		C216.4,81.9,215.7,81.5,214.9,81.1z"/>
	<path class="st28" d="M221,57.4c-0.3,0.4-0.7,0.7-0.8,1.2c-0.2-0.3-0.2-0.7-0.1-0.9C220.3,57.4,220.5,57.3,221,57.4z"/>
	<path class="st28" d="M221.6,55.8l0.4,0.3l-0.3,0.4C221.6,56.3,221.6,56,221.6,55.8z"/>
	<path class="st23" d="M334.2,76.6c-9.1-2.2-18.3-4.4-27.8-4.5c1.4-2.9,2.9-5.6,1.3-8.8c9.1,0.4,18.1,1.6,26.7,4.7
		C334.3,70.9,334.2,73.8,334.2,76.6z"/>
	<path class="st30" d="M307.6,63.4c1.6,3.2,0.1,6.1-1.3,8.8c-3.7,2-7.6,1.7-11.4-0.1c-2-2.7-2.1-5.6-1.2-8.7
		C299.2,58.6,302.1,58.6,307.6,63.4z"/>
	<path class="st23" d="M392,103.6c5.6,5.6,9.1,12.6,14,18.7c-0.7,4.5-5.4,3.3-8.1,5c-3.5-7.1-10-12.4-13.1-19.8
		C387.3,106,389.6,104.7,392,103.6z"/>
	<path class="st28" d="M246,80.6c2.5-2.1,4.7-4.5,5.6-7.3c0.7-1.9,0.9-3.5,3.2-2.5c1.5,0.7,2.3,2.6,1.4,4.4c-0.5,0.9-1.3,2-2.2,2.4
		c-3.2,1.7-5.2,3.4-2,6.6c1.1,1.2,0.7,2.3-0.8,3.3c-8.5,5.5-23.4,0.6-27-8.3c-1.4-3.3,1.8-3.6,2-5.5c0.8,1.6,1.6,3.3,2.5,4.9
		C231.7,84.1,240.4,85.2,246,80.6z"/>
	<path class="st26" d="M214.9,81.1c0.7,0.4,1.5,0.8,2.2,1.3c-0.3,3.6,1.5,6.3,3.6,9c-1.4,3.8-6.7,5.1-7.2,9.4
		c-4-2.3-7.9-4.7-11.9-7.1C205.6,89,209.9,84.8,214.9,81.1z"/>
	<path class="st23" d="M213.6,100.7c0.6-4.5,5.8-5.5,7.2-9.4c1.9,0.7,3.7,1.4,5.6,2.2c1.4,2.9,4.8,1.9,6.9,3
		c-6.7,1-9.6,6.5-13.8,10.5C217.6,104.9,215.6,102.8,213.6,100.7z"/>
	<path class="st19" d="M246,80.6c-5.4,4.6-14.2,3.6-17.3-2.2c-0.8-1.6-1.7-3.3-2.5-4.9c-0.7-1.3,0.5-2.3,0.7-3.6
		c3.5-1.2,3.8,0.7,3.6,3.2c-0.6,0-1,0-1.6-0.1c0.1,0.3,0.2,0.6,0.3,0.7c0.5-0.3,0.8-0.4,1.4-0.7l0.4,0.1l0.4-0.1
		c0.2,0.5,0.3,1,0.6,1.5c-0.1,0.3,0,0.5,0.3,0.7c0,0.3,0.3,0.7,0.5,0.7c0.7,1-0.7,3.6,2.5,2.9c0.5-0.1,0.8-0.2,1.4-0.3h0.1
		c0.3,0.3,0.7,0.6,1,0.7c0.2,0.3,0.4,0.5,0.6,0.7c0.3-0.3,0.6-0.7,0.8-0.9C241.6,77.7,243.4,81.2,246,80.6z"/>
	<path class="st28" d="M231.3,73.3l-0.4,0.1l-0.4-0.1l-0.1-0.2c0.3-2.5-0.1-4.5-3.6-3.2c-0.5-0.3-0.9-0.6-1.4-0.7
		c3.3-1.5,4.7-5.2,7.5-6.6c2.1-1.1,5.9-1,8.8,1.5C238.3,67.3,230.4,66.4,231.3,73.3z"/>
	<path class="st28" d="M233.3,96.5c-2.2-1.2-5.5-0.2-6.9-3c9.4,2,18.8,1.3,28.2,0c-3.9,4.1-9.4,2.9-14.4,3.5
		C238.1,97.2,235.7,96.7,233.3,96.5z"/>
	<path class="st28" d="M266.2,78.5c-0.3,5.1-2.1,9.4-7.1,12.2C259.6,85.6,263.1,82.3,266.2,78.5z"/>
	<path class="st28" d="M235.1,79.3c-3.2,0.7-1.8-1.9-2.5-2.9C234.4,76.6,234.5,78.1,235.1,79.3z"/>
	<path class="st28" d="M258.5,91.2c-0.7,1.2-2,1.3-3,1.8C256,91.6,257.1,91.2,258.5,91.2z"/>
	<path class="st28" d="M238.9,79.6c-0.3,0.3-0.6,0.7-0.8,0.9c-0.2-0.3-0.4-0.5-0.6-0.7c0-0.3,0-0.5,0-0.7l0.1-0.1
		C238.1,79.2,238.5,79.3,238.9,79.6z"/>
	<path class="st20" d="M224.5,53.2c0.4-0.3,0.8-0.7,1.3-1C225.7,52.9,225.3,53.2,224.5,53.2z"/>
	<path class="st28" d="M223.5,54.1c0-0.5,0.3-0.7,0.7-0.6C224.2,53.9,223.9,54.1,223.5,54.1z"/>
	<path class="st28" d="M232.1,75.5c-0.3-0.2-0.4-0.4-0.3-0.7l0.4,0.3L232.1,75.5z"/>
	<path class="st28" d="M236.4,78.9c0.4,0,0.8,0,1.2,0l-0.1,0.1C237.1,79,236.9,79,236.4,78.9L236.4,78.9z"/>
	<path class="st30" d="M312.7,275.5c-2.7-9.3-5.4-18.6-8.3-27.8c-1.4-4.4,0.4-5.9,4.8-6.7c12.2-2.4,24.6-3,37-4
		c8.9-0.7,17.7-1.5,26.5-2.2c0.1,1.5-0.4,3.3,0.3,4.4c5.4,9,0.9,16.6-3.6,24c-0.5,0.7-1.5,1.4-1.7,2.2c-2,10.8-9.4,17.9-18.3,24
		c-7.7,0.6-9.9,6.7-13.1,11.8c-0.7,0.3-1.4,0.4-2.1,0.7c-1.3-0.2-2.6-0.4-3.7-0.6l0,0c-4.7-0.5-7.7-3.3-10.6-6.3
		c-1.3-3.4-2.6-6.6-3.8-9.9C314.6,281.8,314.8,278.3,312.7,275.5z M361.4,241.1c-0.1-1.5-1.3-1.8-2.5-1.8c-1.2,0-2.7,0.1-2.9,1.3
		c-0.3,1.8,1.4,2,2.8,2.2C360,243,361.1,242.5,361.4,241.1z"/>
	<path class="st30" d="M255.2,259.6c1.6-1.5,3.2-3,4.8-4.5c1.6,2,3.2,3.9,5.1,6.3c2-4.5-1.9-5.9-3.4-8.1c0.3-1.3,0.8-2.5-0.3-3.8
		c4.5,1.1,6.5,4.5,7.9,8.1c1,2.3,1.9,2.9,3.9,1.2c3.4,5,2.8,10.3,2.1,15.7c-2.3,2.1-1.7,5.4-3.7,7.6c-0.4,0-0.7,0.1-1,0.3
		c-5.3,1.9-8.7,6.5-14.4,8.2c-6.2,1.9-11.5,1.2-16.8-1.4c2.3-4.4,3.7-9.1,7.2-12.9c3.3,2.9,5.8,2.3,8.2-2c0.9-0.1,1.9-0.2,2.8-0.3
		c3.2,1.4,6.5,2.2,10.3,2.1c-1.2-3.6-4.9-2.2-7-3.8c-0.8-0.7-2.2-1-1.6-2.4c0.5-1.1,1.6-0.7,2.6-0.5c2.5,0.5,4.9,1,7.8,0.3
		c-3.8-2.2-8.2-1.5-11.9-2.8C254.1,265.4,254.1,262.7,255.2,259.6z"/>
	<path class="st25" d="M294.6,276.7c4.8-3.5,9-2.9,13,1c1,2.6,1.3,5.2,0.2,7.9c-5.9,5-8.6,5-14.4-0.1
		C292.8,282.4,292.6,279.4,294.6,276.7z"/>
	<path class="st23" d="M294.6,276.7c-2,2.8-1.9,5.8-1.1,8.9c-7.5-0.1-14.5-1.4-21.6-3.5c2-2.2,1.4-5.5,3.7-7.6
		C281.8,275.7,288.1,277,294.6,276.7z"/>
	<path class="st23" d="M307.8,285.6c1.1-2.6,0.8-5.2-0.2-7.9c1.7-0.7,3.3-1.5,4.9-2.3c2.1,2.9,2,6.5,3.1,9.5
		C313.1,285.2,310.5,285.4,307.8,285.6z"/>
	<path class="st28" d="M205.4,225.3c-0.3,3.4-0.7,6.6-0.9,9.9c-1.6,0.3-1.7,3.1-3.4,2.4c-1.7-0.6-2-2.6-2.3-4.2
		c-0.6-2.1,0.7-4.5-1.6-6.2c0.1-0.3,0.1-0.6,0-0.7c0.6-0.7,1.5-1.6,0.2-2.4c0.1-1.1,0.1-2.3,0.2-3.5c0.6-0.5,1.7-0.9,1.7-1.3
		c-0.6-5.5,2.9-9.7,5.3-14.2l0,0c-4.7,0.2-6.2,3.8-8.4,6.6c-2,2.6-5.1,4-6.9,7c-1.3,2.2-4.9,0.6-5.3-0.8c-1.3-5.2-5.3-3.9-8.9-3.9
		c-1.9-0.1-4.1,0.7-4.8-1.9c4.8-0.1,8.4-2.8,12.4-4.7c5.9,1.3,4.8-3.6,6.9-6.2c-2.9-0.7-5.1-1-6.7,1.3c-1,0.3-3.5-0.4-1.5,2.2
		c0.8,1-0.7,1.3-1.6,1.2c-1.2-2.3-6.3,2.4-6-2.9h0.1c0.9,0.1,2.1,0.4,2.6-0.6c0.7-1.3-0.7-1.4-1.5-1.8c-3.2-1.2-6.3-2.4-6-6.5
		l-0.2-0.2c0.8,0,1.8,0.1,2.6,0.1c4.5,2.9,9.2,2.9,14.1,1.2c3.2-0.6,5.9-2.2,8.3-4.2c3.5-2.1,8-2.6,10.9-6c0.8-1,2.2-0.8,3,0.3
		c2,3,5.4,4.7,7.1,8.3c2.5,5.3,1.3,9.2-2.1,13.2C208.1,212.3,203.9,217.8,205.4,225.3z"/>
	<path class="st32" d="M179.4,205.9c0.9,0.1,2.4-0.2,1.6-1.2c-2-2.5,0.5-1.8,1.5-2.2c-0.1,1.6-0.1,3.2-0.2,4.9
		c-4,1.9-7.6,4.6-12.4,4.7c-1.9-2.1-7.7-1.6-5-6.4c1.8-3.1,4.5-5.4,8.7-2.6h-0.1c-1.7,0.2-4.5-1.1-4.3,1.9c0.1,2.1,2.2,2.8,4.4,2.6
		C175.8,207.4,178,208,179.4,205.9z"/>
	<path class="st23" d="M197.3,220.7c-0.1,1.1-0.1,2.3-0.2,3.5c-1.3,0.7-1.9,1.6-0.2,2.4c0.1,0.3,0.1,0.5,0,0.7
		c-3,0.6-5.6-0.5-5.7-3.1c-0.1-2.4,2.4-4.5,4.9-5.5C197.8,218.2,197.1,219.9,197.3,220.7z"/>
	<path class="st22" d="M147.3,195.6c0-1.4,0-2.9,0-4.2C149.8,192.8,149.3,194.2,147.3,195.6z"/>
	<path class="st32" d="M160.7,208c-0.3-0.2-0.7-0.2-0.8-0.4c-0.1-0.2,0.3-0.6,0.3-0.7c0.3,0.2,0.7,0.2,0.8,0.4
		C161.2,207.3,160.8,207.7,160.7,208z"/>
	<path class="st28" d="M204.5,235.2c0.8,0.3,0.7,0.8,0.3,1.4C204.6,236.2,204.5,235.6,204.5,235.2z"/>
	<path class="st22" d="M292.2,73.5c2,3,4.9,5.2,6,8.7c-5.2,2.2-10.7,3.3-16.4,3.2c0.8-4,1.8-8,2.6-12.1c1.9-2.3,0.4-5.1,1.1-7.9
		C287.7,68.3,288.3,72.3,292.2,73.5z"/>
	<path class="st25" d="M336.3,301.2c3.2-5.1,5.4-11.2,13.1-11.8C347,295.3,341.4,298,336.3,301.2z"/>
	<path class="st30" d="M330.3,301.3c-0.3,0.3-0.6,0.5-0.8,0.7c-0.1-0.2-0.3-0.3-0.3-0.6C329.6,301.4,329.9,301.3,330.3,301.3
		C330.2,301.2,330.3,301.3,330.3,301.3z"/>
	<path class="st24" d="M217.7,128.5c0,9.3-2.1,17.4-11.7,22.6c-9.8,5.5-20,6.5-30.8,4.5c-2.1-0.4-4.4-1.7-6.2-3
		c-5.1-3.9-10.5-7.7-14.1-13.1c-3.9-6.1-4.6-12.5-2.5-19.3c2.1-6.6,6.2-12.4,10.9-17.5c4.9-5.3,12.1-6.5,20-5.8
		c7.5,0.7,14.4,1.1,21.1,5.5c8.8,5.6,12.7,12.7,13,22.1C213.9,125.9,217.8,127.2,217.7,128.5z M186.9,122.1c-4.5-0.5-6.4,2.1-7.1,5
		c-0.7,2.9,4.8,7.6,7.8,6.7c2.8-0.7,6.9-3,6.5-5.1C193.8,125.3,192.2,120.6,186.9,122.1z"/>
	<path class="st24" d="M160.5,156.8c0-2.9-3.7-2.9-4.5-5.1c-0.4-0.5-0.8-0.9-1.2-1.4c-0.2-1-1.8-1.9-0.6-3c2.8,1.6,5.4,3.5,7.4,6.1
		c4.3,5.7,11.5,6.5,18,8.3c0.6,0.7,1.4,1,2.4,0.8c1,0.1,2.1,0.1,3.2,0.2c0.5,0,0.8,0,1.4,0c0.8,0.1,1.6,0.1,2.4,0.2
		c0.3,0.5,0.7,0.5,0.9,0c0.7-0.1,1.4-0.3,2.1-0.3c1.9,0.2,3.6,0.3,5.4,0.4c-6.8,3.5-13.7,1.9-20.7,0.4c-2.1-0.5-4.2-1-6.3-1.6
		c-1-0.5-2-0.9-3.1-1.4C165.3,158.9,163.5,156.8,160.5,156.8z"/>
	<path class="st24" d="M218.8,149.3c-3.4,5.4-8.3,9.2-14.4,11.4c0-0.5-0.1-0.8-0.1-1.3C209.7,157,212.5,151,218.8,149.3z"/>
	<path class="st33" d="M204.2,159.4c0,0.5,0.1,0.8,0.1,1.3c-2,1.8-4.2,2.3-6.8,2c-1.8-0.2-3.6-0.3-5.4-0.4
		C195.7,159.8,200,159.7,204.2,159.4z"/>
	<path class="st24" d="M147.2,137.1c0.4,0,0.8,0,1.3-0.1c0.5,1.2,0.9,2.3,1.4,3.5c0.6,0.7,1.1,1.3,1.7,1.9c0.8,1.6,1.9,3.2,2.7,4.8
		c-0.8,0.8-1.6,0.1-2.4,0.1c-0.3-0.3-0.7-0.5-1-0.5C150.4,143.2,147.3,140.7,147.2,137.1z"/>
	<path class="st25" d="M217.7,128.5c0.2-1.3-3.7-2.5,0-3.8C219.1,125.9,218.9,127.2,217.7,128.5z"/>
	<path class="st33" d="M151.7,142.4c-0.6-0.7-1.1-1.3-1.7-1.9C151,140.7,151.8,141.3,151.7,142.4z"/>
	<path class="st33" d="M182,162.4c-0.9,0.2-1.9,0-2.4-0.8C180.5,161.8,181.2,162.1,182,162.4z"/>
	<path class="st24" d="M219.7,147.3c0.1,0.8,0.1,1.8-1,2.2C218.2,148.4,218.7,147.6,219.7,147.3z"/>
	<path class="st33" d="M190,162.7c-0.3,0.5-0.7,0.5-0.9,0C189.3,162.6,189.7,162.6,190,162.7z"/>
	<path class="st33" d="M186.6,162.5c-0.5,0-0.8,0-1.4,0C185.7,162.5,186.1,162.5,186.6,162.5z"/>
	<path class="st31" d="M245,124.3"/>
	<path class="st31" d="M236.9,164.2"/>
	<path class="st31" d="M278.4,127.9"/>
	<path class="st25" d="M369.1,185.6c-3.7,3.1-4.7,7.8-7.7,11.3c-10.6-4.2-21.9-7.2-31.6-13.5c-1.7-1.1-4.8-1.7-4.2-3.9
		c0.8-2.5,3.8-1.9,6.2-1.6C345.6,179.2,358.4,183,369.1,185.6z"/>
	<path class="st32" d="M355.5,125"/>
	<path class="st22" d="M297.1,91.2c-2,1.8-1,3.7-0.7,5.7c1.5,7.5,3.1,15,4.6,22.4c0.3,1.8,1.2,3.6-0.1,6.1
		c-2.6-4.4-2.5-8.7-3.4-12.9c-1.3-5.2-2-10.6-3.2-15.9c-0.3-1.3-0.2-3.5-2.4-3c-1.8,0.4-0.8,2.2-0.7,3.5c0.7,4,1.5,8,2.3,12l0.1-0.1
		c-4-2.5-2.6-7-4-10.4c-0.6-1.3,0.2-4.1-2.4-3.6c-2.2,0.5-1,2.9-0.7,4.4c1.7,7.5,3.6,14.9,5.4,22.3c0.6,2.3,1.4,4.6-0.3,7.9
		c-4-13.2-8.3-25.3-10-38.3c3-0.7,6.5,1.7,8.9-0.6C293.3,87.7,294.9,89.9,297.1,91.2z"/>
	<path class="st18" d="M183.3,181.4c-3.3-2.4-5.9-5.7-3.7-9.4c1.8-3.1,4.3-6.4,9.5-5.1c3.7,0.9,7,5.2,5.8,9.3
		c-0.5,1.5-1.6,2.9-2.5,4.3C189.4,181.9,186.3,182.4,183.3,181.4z"/>
	<path class="st22" d="M417.9,181.6c-2.7,0-5.4,0.2-7.9-1c-4.4-4.4-4.2-8.7,0.3-12.9c2.6-0.7,5.2-0.7,7.9-0.6
		C424.2,172.9,424.2,175.8,417.9,181.6z"/>
	<path class="st23" d="M297.1,91.2c-2.1-1.2-3.7-3.6-6.7-0.7c-2.2,2.2-5.9-0.2-8.9,0.6c0.1-1.9,0.1-3.8,0.2-5.7
		c5.7,0.1,11.2-1,16.4-3.2c1.5,2.8,4.5,5.2,2.6,8.9c-0.8,0-1.8,0-2.6,0l-0.6,0.1H297.1z"/>
	<path class="st23" d="M183.3,181.4c3.2,0.9,6.2,0.5,9.1-0.8c0.4,3.5,0.8,7,1.3,10.5c-2.4,2-4.9,3.6-8.3,4.2
		C184.2,190.7,183.2,186.1,183.3,181.4z"/>
	<path class="st22" d="M298.1,91.2c0.8,0,1.8,0,2.6,0c3.6,6.9,5,14.3,4.5,22c-0.3,4.1,2.1,7.8,0.8,12
		C301.6,114.2,301.2,102.5,298.1,91.2z"/>
	<path class="st25" d="M273.4,258.6c-2.1,1.8-2.9,1.2-3.9-1.2c-1.5-3.5-3.4-7-7.9-8.1c-0.1-0.7-0.1-1.2-0.2-1.9
		c0.3-0.4,0.7-0.7,1-1.1C267.4,249.6,271.3,253.3,273.4,258.6z"/>
	<path class="st23" d="M418.1,167.1c-2.6-0.1-5.3-0.3-7.9,0.6c-0.4-2.3-2-4.8-0.5-7.2c3.3,1.4,6.5,2.9,9.8,4.4
		C419.2,165.5,418.7,166.3,418.1,167.1z"/>
	<path class="st22" d="M293.5,108.9c0.1,0.3,0.3,0.5,0.3,0.7C293.8,109.4,293.6,109.2,293.5,108.9L293.5,108.9z"/>
	<path class="st23" d="M386.6,235.8c-0.1-0.3-0.3-0.6-0.3-0.8c0-0.2,0.1-0.3,0.1-0.5c0.2,0.3,0.3,0.6,0.5,0.8
		C386.8,235.5,386.7,235.6,386.6,235.8z"/>
	<path class="st22" d="M361.8,221.1c0.4-0.3,0.8-0.6,1.3-0.8c0.3,0.3,0.5,0.4,0.7,0.7c-0.4,0.4-0.8,0.7-1.2,1.1
		C362.3,221.8,361.9,221.5,361.8,221.1z"/>
	<path class="st22" d="M365.3,217.7c0.2,0.2,0.3,0.3,0.3,0.4c0,0.2-0.3,0.3-0.4,0.4c-0.2-0.2-0.3-0.3-0.3-0.4
		C365,217.9,365.2,217.8,365.3,217.7z"/>
	<path class="st22" d="M285.1,217.4c-0.2,0.3-0.3,0.5-0.5,0.7c-0.1-0.2-0.2-0.4-0.3-0.6C284.6,217.6,284.9,217.5,285.1,217.4
		C285.2,217.5,285.1,217.4,285.1,217.4z"/>
	<path class="st22" d="M363,220.3c0.5-0.3,0.7-1.3,1.4-0.4c0.1,0.1-0.5,0.7-0.7,1C363.4,220.7,363.2,220.5,363,220.3z"/>
	<path class="st22" d="M433.7,163.1c0.1,0.7,0.2,1.3,0.3,2"/>
	<path class="st27" d="M398.9,136.9c-0.3-0.3-0.4-0.5-0.5-0.7c2.8-2,7-2.2,8.3-6c0.3-0.1,0.6-0.3,0.7-0.7c0.3-0.2,0.4-0.4,0.3-0.7
		c3.1-5.5,5.4,3.2,8.3,0.3c-1.3,4.3,6.1,2.7,4.9,5.9c-1.4,4.4-2.5,9.4-8.4,11.1c-2.4,0.7-4.7,1.6-6.6,3.3c-2.7,2.3-5.2,2-6.6-1.5
		c1.1-0.7,0.5-1.3-0.3-1.9c0.2-0.5,0.3-0.9,0.5-1.5c0.4-1.5,3.6-3.1-0.1-4.5c-0.4-0.1-0.8-0.3-1.2-0.3
		C399.8,139,401.9,138.4,398.9,136.9z M414.7,137c-3.7,2.3-3.4-1.9-4.8-3.2c-3.1,2.9-3.7,5.9-3.1,10.7
		C409,140.7,414.6,141.9,414.7,137c0.3-0.3,0.5-0.5,0.7-0.7c-0.2-0.1-0.3-0.2-0.5-0.3C414.8,136.4,414.7,136.7,414.7,137z"/>
	<path class="st28" d="M441.8,156.9c-0.4,0.1-0.8,0.2-1.3,0.2c-2.3-3.5,1.1-7.7-1.4-11.2c0.1-0.5,0.3-0.9,0.3-1.4
		c0.5-0.8,0.9-1.9,1.5-2.7c2.1,1.9-1,6.8,4.4,6.8c0.3,0.3,0.7,0.7,0.9,0.9c0.3,1.9-3.7,3.3-0.7,5.4
		C444.6,155.9,441,152.5,441.8,156.9z"/>
	<path class="st25" d="M406.8,130.1c-1.4,3.7-5.5,3.9-8.3,6C398.1,130.2,402.3,130.1,406.8,130.1z"/>
	<path class="st25" d="M439.5,144.4c-0.1,0.5-0.3,0.9-0.3,1.4c-3.1-1-3.4-4.5-5.8-6c0.1-0.4,0.3-0.7,0.6-0.8
		c0.3-0.9,1.1-0.7,1.8-0.8C436.2,140.6,437.3,142.8,439.5,144.4z"/>
	<path class="st25" d="M399.7,140.2c3.7,1.4,0.5,3,0.1,4.5C397.4,143.2,398.9,141.6,399.7,140.2z"/>
	<path class="st25" d="M398.9,136.9c2.9,1.5,0.7,2.2-0.6,2.9c-0.8,0.3-1.7,0.3-1.7-0.7C396.8,138,397.7,137.3,398.9,136.9z"/>
	<path class="st25" d="M399.3,146.2c0.8,0.6,1.4,1,0.3,1.9c-1.4,0.2-2.9,0.3-4.3,0.4h-0.1C396.5,147.6,397.9,147,399.3,146.2z"/>
	<path class="st25" d="M432.5,138.6c-0.7-0.3-2-0.7-1.4-1.1c1.2-1,2,0.1,2.6,1C433.3,138.6,433,138.6,432.5,138.6z"/>
	<path class="st29" d="M432.5,138.6c0.4,0,0.8-0.1,1.2-0.1l0.3,0.5c-0.3,0.3-0.5,0.6-0.6,0.8c-0.3,0-0.4,0.1-0.6,0.2
		c-0.1-0.4-0.3-0.7-0.3-1.1L432.5,138.6z"/>
	<path class="st25" d="M407.9,128.8c0.1,0.3-0.1,0.6-0.3,0.7c0-0.3-0.1-0.5-0.1-0.7C407.5,128.8,407.7,128.8,407.9,128.8z"/>
	<path class="st25" d="M432.4,138.9c0.1,0.4,0.3,0.7,0.3,1.1C431.7,140,431.8,139.5,432.4,138.9z"/>
	<path class="st28" d="M399.2,98.5c-0.7-2.1,0-3.1,2.4-2.9C400.8,96.7,400,97.6,399.2,98.5z"/>
	<path class="st28" d="M395.6,100.2c0.4-1.7,1.6-1.7,3-1.2C397.6,99.4,396.6,99.8,395.6,100.2z"/>
	<path class="st28" d="M392,102.5c0.3-1.4,1.1-1.7,2.4-1.1C394.2,102.6,393.1,102.5,392,102.5z"/>
	<path class="st28" d="M394.5,101.3c-0.2-0.9,0.3-1.3,1.3-1.2C395.3,100.5,394.8,101,394.5,101.3z"/>
	<path class="st28" d="M257.9,266.9c3.7,1.3,8.1,0.7,11.9,2.8c-2.9,0.7-5.4,0.1-7.8-0.3c-0.9-0.2-2.1-0.6-2.6,0.5
		c-0.7,1.3,0.7,1.7,1.6,2.4c2,1.6,5.8,0.3,7,3.8c-3.7,0.2-7.1-0.7-10.3-2.1C258.3,271.6,253.1,269.1,257.9,266.9z"/>
	<path class="st25" d="M254.9,274.3c-2.4,4.3-4.8,5-8.2,2c0.8-1.2,1.8-2.3,2.7-3.5c0.4,0.1,0.8,0.2,1.3,0.3
		C252.2,273.3,253.5,273.8,254.9,274.3z"/>
	<path class="st27" d="M261.7,253.2c1.6,2.3,5.4,3.6,3.4,8.1c-2-2.3-3.5-4.4-5.1-6.3C260.6,254.4,261.2,253.8,261.7,253.2z"/>
	<path class="st28" d="M230.5,73.4c-0.5,0.3-0.8,0.4-1.4,0.7c-0.1-0.3-0.2-0.6-0.3-0.7C229.4,73.2,229.9,73.2,230.5,73.4
		C230.4,73.2,230.5,73.4,230.5,73.4z"/>
	<path class="st33" d="M236.4,78.9c0.4,0.1,0.7,0.1,1.1,0.1c0,0.3-0.1,0.6,0,0.7C237.1,79.5,236.9,79.3,236.4,78.9z"/>
	<path class="st32" d="M361.4,241.2c-0.3,1.3-1.4,1.9-2.6,1.8c-1.4-0.2-3.1-0.3-2.8-2.2c0.2-1.3,1.8-1.3,2.9-1.3
		C360.1,239.4,361.3,239.6,361.4,241.2z"/>
	<path class="st19" d="M182.5,207.4c0.1-1.6,0.1-3.2,0.2-4.9c1.6-2.3,3.9-2,6.7-1.3C187.4,203.7,188.4,208.8,182.5,207.4z"/>
	<path class="st19" d="M179.4,205.9c-1.4,2.1-3.7,1.5-5.9,1.6c-2.1,0.1-4.3-0.6-4.4-2.6c-0.2-2.9,2.6-1.7,4.3-1.9
		C173.2,208.3,178.3,203.6,179.4,205.9z"/>
	<path class="st19" d="M197.1,226.6c-1.7-0.9-1.2-1.8,0.2-2.4C198.6,225,197.6,225.7,197.1,226.6z"/>
	<path class="st19" d="M204.4,205.2C204.4,205.2,204.3,205.2,204.4,205.2C204.3,205.2,204.4,205.2,204.4,205.2z"/>
	<path class="st27" d="M186.9,122.1c5.3-1.4,6.9,3.2,7.3,6.5c0.3,2.2-3.7,4.4-6.5,5.1c-3.1,0.8-8.6-3.9-7.8-6.7
		C180.6,124.3,182.4,121.5,186.9,122.1z"/>
	<path class="st25" d="M414.6,137c0,5-5.5,3.7-7.9,7.6c-0.7-4.9,0-7.9,3.1-10.7C411.3,135.1,411,139.4,414.6,137L414.6,137z"/>
	<path class="st25" d="M414.7,137c0.1-0.3,0.2-0.7,0.3-0.9c0.2,0.1,0.3,0.2,0.5,0.3C415.2,136.5,414.9,136.8,414.7,137
		C414.6,137,414.7,137,414.7,137z"/>
</g>
</svg>
